<svg id="Layer_1" data-name="Layer 1" xmlns="http://www.w3.org/2000/svg" viewBox="0 0 1080 1080">
  <g>
    <path d="M923.71,639c-79.17-10.26-100-70.19-117.76-133.62-15-54.33-40.81-99.68-103-115,9.09-10.49,17-16.9,21.34-25.18,8.39-16.21,26-34.86,4.31-51.19-16.91-12.82-32.65,2.45-46.64,12.6-6.18,4.54-13.29,9.79-16.32,16.32-22.5,49.32-44,29.5-71.36-3.5,26.35-1.63,44.78-11,60.63-24.72,17.38-14.92,28.8-34.74,19.36-56.31-11.55-26.35-35.91-15.74-56.2-11.78-35.21,6.88-56,38.36-86.86,57.25-14.23-38.71-22-75.67-53.17-99.22-17.61-13.29-37-24.72-57.95-8.4-22.38,17.49-20.29,42.56-8.16,63.08,11.08,19,29.73,33.58,46.64,51.88-69.84,9.68-121,42.1-138.63,113.8-6.88,28.22-12.83,56.55-18.77,85-18,87.09-53.05,161.36-141,199.61-31.24,13.64-31.94,33-.35,48.15,31.25,14.92,63.55,27.63,95.38,41.39,33.46,4.43,61.09,14.34,79.28,48.15,20.76,38.71,64.25,55.5,99.22,36.5,51.65-28,100-13.41,150.41-10.38,9.56.58,19.35,2.92,28.8,2,27.63-2.56,64.36,14.81,80.57-13.05,18.07-31-31.72-37.55-36.85-66.11,37.78-38.83,82.2,9.67,122-6.42,30.43-46.52,75.79-73.8,124.41-97.24,10.26-4.89,19.58-12.7,27.74-20.75C944.35,658.27,947.85,642.18,923.71,639ZM817.38,594.38c6.18,11.42.23,17.25-9.33,22.38-51.18,27.52-105.4,46.87-161.25,62.15-8.16,3.49-15.39,2.91-17.72-6.88-3.15-12.94,2.56-23.9,14-28.45,50-19.82,100.62-38.24,150.76-57.6C805,581.67,812,584.35,817.38,594.38ZM665.92,436.16c-5.24-16.68,5.72-19.71,18.07-20.64,28.8-2.1,54,5.83,71.48,29.73,24.25,33.11,36.26,71.36,40.69,111.7.46,4.31-13.64,11.77-22,15.39-40.11,17.72-79.63,37.54-130,45.24C656.48,553,685.16,497.37,665.92,436.16Zm-17-170.93c8.86.7,8.63,11.31,4.31,18.54-20.52,34.63-53.51,39.64-94.55,38C579.29,280,608.56,262.08,648.9,265.23ZM430.17,251.47c-6.41-12.24-9.44-26.7,2.21-37.19,13.3-11.89,24.61-1.87,34.63,7.23,22,19.7,33.93,44.42,37.9,80C471.09,289.6,444.51,279,430.17,251.47ZM316,534.45c7.7-25.89,11.66-52.82,17.61-79.17,21.8-96.77,63.66-126.27,169.06-113.1-67.51,14.11-83.6,62.26-86.51,138.05,34.39-49.32,27.51-123,104.58-111.7-28.8,37-17.37,74.39-2.21,114.15,23.67-11.66,14.92-29.62,8.86-44.07-14.58-34.87,7.46-67.63,24.72-82.79,15.27-13.4,46.75,16,65.41,35.21,41.5,42.8,40.69,94.56,25.41,146.68-39.52,134.55-9.67,112.16-136.29,89.08-54.92-10-107.85-30.08-162.42-42.79C314,576.89,307.75,562.43,316,534.45Zm-32.29,88.14c8.51-13.41,9.67-34.39,36.49-25.53,86.28,28.8,174.08,51.77,264.2,65.17,22.74,3.38,19.59,19.36,19.82,34.75.24,22.38-13.52,24.6-31,22.5-94.09-12.71-186.2-33.81-275.16-67.86C283.38,646,273,639.85,283.73,622.59Zm61.32,203.34c38.13,9.45,68.68,17,101.21,25.19C404.64,881.43,388.19,878.05,345.05,825.93Zm330.78,32.3c-185.38-2.1-348.38-53.17-510.8-119.74,28.8-22.51,57-42.21,82.32-65.06,14.92-13.64,26.47-8.63,41.74-3,89.43,32.65,180.84,57.25,276,66.93,26.58,2.68,46.52,10.49,53.87,41.39C625.7,807.28,651.11,825.93,675.83,858.23Zm-10.26-92.11C644,772.06,632.34,765,627.91,743.5c-4.19-20.64-5.36-39.41,21.11-45.36,60.86-13.75,117.17-39.29,173.49-65.52,34.51-16.09,51.88,26.12,83,27.4C832,715.63,749.64,742.92,665.57,766.12Z" style="fill: #131313"/>
    <path d="M185,670.34c-53.93,24.45-99.25,50.16-47.15,130.28-47.24-26.45-52.11-55-44.86-83.56C104.31,672.25,147,676.61,185,670.34Z" style="fill: #131313"/>
    <path d="M922.7,613.62c39.18-12.1,59.37,2.12,62.24,26.19,4,33.4-19.28,53.42-53.77,69.06C930.59,673.93,1009.35,643.15,922.7,613.62Z" style="fill: #131313"/>
    <path d="M59.8,728.86c-15.17-61.47,14.8-89.28,83.3-82C111.46,672.79,57.09,670.75,59.8,728.86Z" style="fill: #131313"/>
    <path d="M996.63,599.39c39.19,20.47,31.28,46,8,84.43C996.07,648.88,1003.87,623.42,996.63,599.39Z" style="fill: #131313"/>
  </g>
</svg>
