<svg id="Layer_1" data-name="Layer 1" xmlns="http://www.w3.org/2000/svg" viewBox="0 0 1080 1080">
  <g>
    <path d="M730.87,411.16c-27.46,7.57-28.1-7.57-27.33-26.18,1.8-51.2,4.49-102.39,5.52-153.72.38-26,15.27-57.35-18.48-74.29-30-15.14-54.27,5-77.24,18.6-108.17,64-149.74,163.73-144,295.25-73.27-52.48-130.62-108.17-183.74-169-32.72-37.59-56.85-32.46-70.58,14.25a210.11,210.11,0,0,0-8.47,63.13C211,535.62,276.39,652.64,433.83,712.05c-58.9,65.18-110.61,129.21-154,201.2,125,50.94,186.06-36.32,249.7-114.07,44.14,64.67,44.14,64.67,126.13,89.3-4.23-33.75-28.36-36.31-55.3-40.16-25.15-3.46-30.16-28.49-34.52-48.89-3.85-17.19,12.19-19.5,24.25-22.32,23.61-5.65,41.19-.77,50.3,25.27,6.93,20,17.2,39,26.43,58.26,4.37,9.11,17.58,23.86,20.66,16,21-55.43,39.78,18.47,59.41-.13,1-30.28-18.86-42.86-43.37-44.27-31.56-1.92-41.44-25.92-44-46.71-3.34-28,26.69-19.11,42.34-24C798.24,731,871.76,625.05,839.55,547.17c-19.11-46.07.9-48.12,33-53.64,11.55-2,25.53,4.49,38.11-13.34C856.62,440.16,808.25,389.6,730.87,411.16Zm-241,21.55c7.57-116.12,55.05-198.5,154.62-248,34.13-17.06,47.47-8.21,45.29,29.39-4.23,72.49-4.1,145.25-12.44,217.1-5.14,43.63-28.87,81-81.87,77.89C507.74,503.93,487.85,486.86,489.9,432.71ZM816.71,554c23.36,47.6-12.57,120.23-67.49,159.36C724.46,731,696,745.67,666.84,745.28c-98.54-1.66-171,39.65-225.19,120.23-27.84,41.32-71.59,40.55-121,34.9,27.45-58.63,69.54-103.16,109.45-148.71,33.23-37.85,29.64-59.54-20.28-77.89C272.41,623.64,191.32,436.56,250.21,297.6c50.43,56.59,96.62,106.5,149.1,149.87,39.65,32.85,82.38,59.28,132.93,73.78,64.8,18.48,116.38,16.55,160-48.37,42.09-62.37,82.51-59.29,166,.12C797.21,480.32,793.49,506.62,816.71,554Z" style="fill: #131313  "/>
    <path d="M198.82,516.09Q223.54,568.56,248.27,621C203,599.72,189.38,563.38,198.82,516.09Z" style="fill: #131313"/>
    <path d="M169.36,590.27C201,616.9,218,652.18,235.09,702.4,187.35,669.53,179.14,629.88,169.36,590.27Z" style="fill: #131313"/>
    <path d="M462,307.51c-2-40.16,12.48-71.49,50.24-97.88C512.05,255.66,478,277.31,462,307.51Z" style="fill: #131313"/>
    <path d="M446.67,234.29c4.59-32.23,17.55-57.56,58.5-75.33C491.05,198,473.27,219.57,446.67,234.29Z" style="fill: #131313"/>
  </g>
</svg>
