<svg id="Layer_1" data-name="Layer 1" xmlns="http://www.w3.org/2000/svg" viewBox="0 0 1080 1080">
  <g>
    <path d="M850.11,471.22c22.79-25.74,19.09-44.83-3-67.87C802.81,357,764.5,361,708.21,420.11c-53.58,56.29-62.32,57.4-108.39,1.1-33.63-41-69-44.71-103.1-6.65-46.68,52-87.33,39.91-130.07-3.2-23-23.16-46.81-46.56-76.25-48.28-64.79-.87-92.62,41.63-65.77,92.75C258.26,519.88,308,572.35,352.48,628.39c21.19,26.61,31.78,48.41.13,76.37-34.86,30.8-27.84,67.63,11.58,83.64C408.78,806.51,393,825.47,378.1,852c-9.48,17-23,36.58-3.94,56,16.88,17.25,38.06,12.69,57.65,6.53,60-19.09,124.41,43.23,182.67-9.73,1-1,6.77,3.94,10.59,5.17,23.9,7.15,48.9,33.75,72.43,6.28,22.29-26-3.7-50.13-14-72.67-12.94-28.08-18.11-44,20.2-56.91,36.46-12.07,50.13-39.78,18.84-76.12-29.44-34.12-22.29-65.53,8.75-98.41C773.25,567.42,809.22,517.17,850.11,471.22ZM680.13,900c-53.7,9.48-61.71-45.33-100.51-63.81,20.82,35.6-3.08,49.39-21.8,66.88-20,18.6-32.15.87-48.53-5.17-33.88-12.81-30.67-37.44-15.65-69.59-39.54,15.39-37.57,58.51-71.07,66.27-10.1,2.34-19.46,7.14-28.94,0-11.83-9-3.08-17.74.86-26.61,18.1-40.53,37.69-76.25,94-63.44,25.37,5.79,53.7,6.66,79.32,1.85C642.68,792.34,669,833.36,680.13,900Zm35.35-163.83c-40.15,68-308.43,73.29-358.56,10.23C476.15,762,595.26,772.14,715.48,736.17Zm-25.74-31c3.2,18.73-19.34,23.65-35.72,26.12-79.45,12.19-159.15,14.53-238.84,2.21-15.52-2.46-40.4-2.21-36.09-22.78,5.79-28.21,20.08,5.29,29.93,1,23.28-10.1,5.79-23.4.25-33.87-31.78-60.36-79.33-109.26-119.73-163.21-12.32-16.38-25.74-32.39-35.1-50.38-11-21.43-38.93-44.46-4.19-68.11,31.29-21.31,62.7-11.21,81.42,15.76,24.14,34.74,39.91,75.51,60.35,113.08,9.37,17.12,10.47,39.91,48.41,58.51-19.95-46.32-34-79.08-51-118.38,51.73,16.76,90.78,1.85,123.79-35.1,25-28,50.38-24.27,69.47,7.88,19.09,31.91,44.71,52.11,86.47,48-17.12,50.87-54.45,84.87-82.41,141,49.77-22.91,60.73-59.62,80.07-87.46C692.32,502.63,711.05,461,736.3,423.8c21.18-31,50.38-40.4,84.13-14.78,35.72,27,12.93,47.67-5.55,70.7-57.52,71.57-124,136.48-166.16,217.41C660.18,726.93,684.32,674.09,689.74,705.13Z" style="fill: #131313"/>
    <path d="M650.08,264.17c-4.07.24-8.38.37-12.08,1.72-35.59,11.83-91.15,17.74-87.33,58.63,3.94,42.5,53.09,62.45,99.9,63.81,47.3.61,120.09-41.27,121-69.6C772.26,295.7,695.28,261,650.08,264.17Zm85.36,70.08c-35.11,29.81-72.31,49.76-127.12,21.19,40.65-10.59,77.72-1,108.15-32.77-45.58-43.72-90.91-22.78-136.6,4.68,38.3-44.83,114.67-51,152.36-21.3C745.41,316.27,747.38,324.28,735.44,334.25Z" style="fill: #131313"/>
    <path d="M642.19,213.79c-40.89-40-85.85-56-138-29.56-.74,0-1.48.12-2.22.12-.12.37-.25.86-.37,1.23a24,24,0,0,0-3,.62c-.12.37-.24.86-.37,1.23a4.86,4.86,0,0,0-1.35.74c-.86.12-1.85.12-2.71.24v1c-11.33,1.72-26,.12-28.58,14.78-2.46,14.29,13.06,12.44,21.19,15.4,27.59,10.1,55.43,10.84,87.58,2.09-20.57-21.19-40.41-21.8-60.11-15.89-8.75,2.59-14.05,2.09-17-.86-.13-3.7,1.23-9.12,3.57-17,43.85-3.33,84.87,8,124.53,26.24-58.75,63.43-110.12,71.31-169.86,27.59-27-19.71-35.72-36.09-2.95-60.11,52.59-38.31,135.24-41.26,183.16-1.6C644.66,187.43,671.38,196.91,642.19,213.79Z" style="fill: #131313"/>
    <path d="M450.9,270.82c-25.87-11-52.23-5.67-76.86,5.66-26.24,11.95-57.65,28.83-59,56-1.23,25,37.08,25.13,57.4,36.58,17,9.61,38.43,11.58,49.15,14.41,50.25-2.34,95.7-12.44,102-54.32C529.61,289.17,481.08,283.5,450.9,270.82Zm48.41,59.12c-2.83,21.56-30.06,29.69-62.2,30.8C450.78,342.63,471.84,344,478,324.89c-22.29-21.18-48.65-28.7-77.85-20.08-7.14,2.1-32.27-3.81-14,26.86,9.36,15.89-24.51,1.72-42.62-2.34,28.21-42.38,66.52-49.77,108-37.94C471.1,296.93,502.63,304.94,499.31,329.94Z" style="fill: #131313"/>
  </g>
</svg>
