<svg id="Layer_1" data-name="Layer 1" xmlns="http://www.w3.org/2000/svg" viewBox="0 0 835.08 675.18">
  <path d="M341.63,340.87c-18.75-20.84-37.11-42.05-56.38-62.39-13.95-14.73-14.53-20.37.8-33.82,14.6-12.81,27.77-29.76,44.87-36.48,16.29-6.41,36.83-2.08,55.51-2.23,19.84-.16,39.7.45,59.52-.22,10.14-.34,17.95,2.66,25.18,9.58,11.09,10.61,22.79,20.58,34.19,30.86,13.34,12,13.32,18.58.08,31.29-17.84,17.11-35.59,34.31-53.53,51.31-2.65,2.51-6.16,4.12-11.12,7.35,19.32,5.89,34.82,9.76,49.66,15.39a270.1,270.1,0,0,1,39.38,18.68c7.83,4.54,13.33,4.53,21.15,0,138.6-80.87,319.54-20.53,382.5,127.29C999.73,653,909.06,831.55,744.14,868.11c-69.43,15.39-136,5.6-197.6-31.43-6-3.62-9.94-2.36-15.1.73-152.13,91.13-340.24,8.23-392-144.17C87,539,179.43,374.86,338.49,340.24c2.17-.47,4.29-1.21,6.43-1.83ZM478.7,781.39C394,662.45,391.13,544.7,479.5,427c-71-36.34-174.9-24-237.74,54.15-60.23,74.86-57.63,183.33,6,253.88C314.32,808.79,414.28,816.34,478.7,781.39Zm121.08.08C664.89,815.47,771.9,811,839.7,726c59.47-74.61,55.67-183.42-9.83-254.53-66.24-71.91-166.23-78.6-229.14-43.53C689.08,537,684.79,682.44,599.78,781.47Zm-14.63-6.54c87.25-93.87,90.54-242.67-2.14-344.27C482.54,320.52,318,323.45,218.8,418.37c-103.12,98.73-108,261.63-10,362.56,99.64,102.61,240.36,96,316.09,42.63-10-9-19.68-18.3-30.15-26.69-2.53-2-8.25-2.4-11.36-1-37.82,17-77,22.71-118.22,17.48-110.58-14-194.84-123.76-179.4-234.47,16.83-120.75,123-200,243.88-182.19,129.7,19.16,212,163.34,161.28,284.46-9.83,23.49-25,44.77-38.63,68.83C561.73,757.18,573.5,766.1,585.15,774.93ZM494.81,434.16c-84.61,89.77-92.57,240.36,3.61,346.28,90.67,99.88,253.07,107.81,354.71,17.43,106-94.26,118.72-254.22,27.5-359.32-91.54-105.46-235.14-114.3-326.49-53.16l35.32,30.68c112.63-54.07,225.22-4,275.18,78.4,55.74,91.95,35,206.77-48.84,275-78.45,63.88-197.93,59.9-272.25-8.3C471.15,694.79,439.78,564.05,530,460.5ZM539.49,736.6c72.06-74.37,66.72-193.57.92-263.32C477.05,534,465.6,653.69,539.49,736.6Zm-137-467.77v65.25c3.17-.42,7,.11,7.78-1.2,12.56-20.86,24.73-42,37.59-64.05Zm-15,.77H342.84c12,20.84,23.06,40.37,34.58,59.63,1.56,2.62,5.43,3.85,10.06,7Zm-28.9,59.84,1.84-1.38c-10.85-18.86-21.63-37.76-32.67-56.51a7.44,7.44,0,0,0-5.4-2.91c-8-.32-16-.14-27.14-.14Zm83.32-75.28,1.58-2.34c-14.44-9-16.54-33.54-40.93-31.91v34.25ZM429.69,328l3.52,2.84c19-20.83,38-41.67,56.72-62.28-6.23,0-14-.25-21.65.17a8.7,8.7,0,0,0-6.14,3.51C451.14,290.68,440.46,309.35,429.69,328ZM387.94,221c-13.43-1.93-32.8,15.14-39.63,33.85,11,0,21.83.38,32.59-.29,2.46-.15,6.53-3.78,6.72-6.07C388.4,239.29,387.94,230,387.94,221Zm-90,31.52,1,2.76c9.75-.62,21.92,2.18,28.7-2.64,10.92-7.76,18.29-20.53,27.16-31.18-8.2-1.64-16.36-3.24-21,.09C321.05,230.76,309.78,242,297.93,252.51Zm136.53-32c16.75,17.67,25.52,44.1,58.25,32C473.53,241.54,465,215.21,434.46,220.55Z" transform="translate(-122.46 -202.41)" style="fill: #000;stroke: #ebebeb;stroke-miterlimit: 10;stroke-width: 4.499114990234375px"/>
</svg>
