<svg id="Layer_1" data-name="Layer 1" xmlns="http://www.w3.org/2000/svg" viewBox="0 0 1080 1080">
  <g>
    <path d="M99.56,366l-7.29,12.23c-2.86-1.86-1.09-4.4-1.64-6.41,1-2.58-.25-3-2.41-2.39-6.94,40.29-20.57,79.15-26.06,119.71-15.12,111.83,3,217.7,61,315,76.4,128.18,188.32,209,335.74,232.39,186.79,29.58,342.68-31.61,462.72-177.81,58.72-71.53,90.19-155.73,99.72-248.12C1034.23,485.5,1003.2,372.32,928.15,272c-67-89.66-154.87-150.18-263.66-179.12-2.55-.68-5.15-2.84-8.09.88,3.21,3.34,7.73,3.53,11.69,4.78,184.55,58.3,301.29,181.05,340.78,370.6C1052,676,948.31,886.48,760.11,983.63c-57.75,29.8-119.46,47.7-184.86,52.2-146.37,10.05-271.61-37.57-375.06-140.15C131.37,827.43,89.46,743.73,70.25,648.39c-17-84.2-6.78-166.15,16.39-247.49,3.92-13.76,15-21.73,23.71-31.69-.3-.32-.59-.64-.89-.95-2.52-3.22-7.68,10.05-8.89-1.42C100.24,366.55,99.9,366.27,99.56,366Z" style="fill: #EAEBED"/>
    <path d="M129.25,279.74C126.66,311,108,336.73,99.56,366a2.83,2.83,0,0,0,1,.84c11.77-18.64,20.49-39,33-57.28,9-13.13,21.11-21.82,34.45-29.49,7.31-4.2,15-.44,22.51-1.28l-.1.13c6.46-7.59,26.28-7.65,31.79-.12,2.6,3.55,5.19,7.11,8,10.51,1.41,1.72,3.22,4.61,5.69,2.28s1.34-5.14-.85-7.42c-3-3.15-8.1-3.68-10.21-8a4.36,4.36,0,0,0-.4-5.53c8.15-7.75,19.7-6.32,29.07-10.77,1.47-1.84,6.62-.16,4.86-5.08,2.63-2.52,5.32-5,7.85-7.56,1.64-1.68,4.07-3.73,1.32-6s-7.89-2.15-8.49.72c-3.57,17.14-18.83,16.7-30.66,21.12-7.84,2.93-15.7,6.62-25.23,5.68,1.33-6.42,7.42-7,11-10.2,1.77-1.56,6.61-2.11,3.15-5.92a4.75,4.75,0,0,0-7.51.64,36.38,36.38,0,0,1-23.39,16c-9.08,2-17.27,6.5-25.6,10.35-2.74-3.08-.24-5.06,1-6.46,16.42-18.52,32.69-37.16,51.82-53.1,18.61-15.53,39.64-18.62,62.77-15a232.54,232.54,0,0,1,57,16.52c3,1.3,5.85,2.92,9.3,2.19.15-.51.31-1,.47-1.51-.68-2-2.32-3.08-3.92-4.28-.54-.4-2.73.22-1.53-1.61.27-.4,1.49-.28,2.28-.6,1.51-.82,2.66-1.81,2.11-3.73-26.31-3.88-52.7-7.25-78.87-11.91-9.33-1.65-17.9,4-28.16.8,21.9-19.52,42.8-38.47,74.67-33.1,1.08-.56,2.48-.72,2.81-2.22-7.41-3.16-15.26-1-23.26-3.2,37.08-15.07,70.12-42.73,114.42-35.38,3.62-1.6,7.71-1.56,11.32-3.15,1.8-.79,3.81-1.83,3.15-4.2s-2.46-3.92-5.32-3c-4.93,0-9.85-.09-14.78-.18-.12,0-.38-.55-.31-.75a3.48,3.48,0,0,1,.69-.91c.54-2.25-.84-3.17-2.61-3.84-4.3-.8-7.8,1.46-11.51,3a47.52,47.52,0,0,0-9.56,5c31.89-22.15,64.44-42.83,104.82-45.23a10.34,10.34,0,0,0-4.45,5.21,2.83,2.83,0,0,0,1.2,3,185.22,185.22,0,0,1,33.34-14.62c-17.49-3.58-34.47-.56-51.4,3.24-24.41,5.48-46.5,15.82-67.06,30.18-30,20.93-63.52,35.57-95.59,52.81-10.22,5.5-20.2,11.46-30.92,17.56-.56-5.92,5.06-8,5.46-15.43C252,178,234.87,197.9,210.7,212.92c3-11.28,4.94-21.43,8.46-31,2.87-7.8,8.2-14.53,18.19-11.14,5.08,1.73,5.09-2,6.74-4.4,1.3-1.85,1.82-3.67-.38-5.16A5.71,5.71,0,0,0,236,162c-3.51,3.62-7.34,6.11-13.68,5.86,5.35-16.39,17.48-25.64,30.92-33.75-.35-.43-.69-.86-1-1.3-8.88-3.16-2.36-9-2.38-13.69,0-3.22,5.05-6.71,0-9.48-1.74-1-5.15-.65-6.89.48-4,2.63-.47,5.73.49,8.49,4.88,14-8,19.54-12.81,29.55l-4.68-6.73-1.68,0c1.86,7,1.12,13.58-4,19.83-6.36-4.22-7-11.56-10.28-17.31-.9-1.59-.69-4.45-3.49-4.25s-3.91,2.54-4.92,4.75c-1.18,2.56-.84,4.32,2.13,5.74,11.4,5.44,12.07,15,11.34,26.35-1.58,24.41-12.24,44.4-28.35,61.55a573.69,573.69,0,0,0-59.08,73.87c1.74-11.39,2.92-19.1,4.1-26.81C130.34,283.56,131.48,280.88,129.25,279.74Z" style="fill: #EAEBED"/>
    <path d="M129.25,279.74l2.46,5.35c4.76-36.78,16.65-70.51,35.56-103,14.52-24.94,27.61-51,41.57-76.39l-1.25-1.13c-5.8.52-7.28,5.69-10.06,9.42-13.47,18.1-22.81,38.57-33.46,58.25-1.52,1.23-3.61,1.34-5.11,2.6-6,24-19.39,45.14-25.67,69.19-4.2-15.92-3.55-31.56.25-47.24,2.27-9.42,5.79-18.6,5.64-28.51.8-2.72-.68-3.24-2.92-3-9.94,20.62-12.41,42.89-14.36,66.13-6.06-13.39-7.43-27-9-40.64-.87-2.4-1.41-5.13-4.92-4.78-1.42,21.72,1,42.4,15.25,60.23C131.26,256.16,129.37,268.18,129.25,279.74Z" style="fill: #EAEBED"/>
    <path d="M273,349.61c23.46.38,47,.1,72.76,3.26-4.07-5.22-8.26-7-12.29-8.65-26.06-10.39-53-17.52-81-20.25a96.21,96.21,0,0,0-44.22,6.19c-23.73,9.18-46.89,19.57-72.18,24.46-9.66,1.87-19.28,6.15-26.66,13.64.29.31.59.62.88.94,15.41-8.57,28,1.4,41.43,6.22,1.64-6.12-5.32-6.83-7-10.94,2.47-2.18,6.14-1.1,8.5-3.33a2.17,2.17,0,0,0,.66-2c-.15-.69-.32-1-.5-1,11.48-8.53,25.24-9,38.59-10.9,2.95,1.22,5.8,1.87,8-1.3,0-6.74,5.83-7,10-8.68,22.42-8.83,45.28-6.65,68.15-2.17,11.11,2.19,22.18,4.63,31.59,8.71a223.46,223.46,0,0,0-32.19.87C275.28,345.56,272.54,346.09,273,349.61Z" style="fill: #EAEBED"/>
    <path d="M115.09,295.19c-6,4.29-9.8,11.27-17.12,14.43-6-16.15-.37-29.84,6.75-43.3l.22.19c-6.33,1.75-6,9.22-12,13.4-1.29-16.29-12.52-28.86-12.61-45a7,7,0,0,0-4.61-6.61c-2.73-1.18-5.84-4.26-8.62-.48-2.14,2.91.23,5.48,2.09,7.45A57.91,57.91,0,0,1,83,260.69c-4.38-.92-5.75-4.05-8-6.16-1.59-1.51-2.71-4.62-5.78-2.34a5.11,5.11,0,0,0-2.3,5.25c.52,2.2.49,6.08,3.35,5.61,14.31-2.34,13.9,10.17,17.18,17.63s4,16.4,6.47,27.58c-7.5-9.18-10.9-17.3-14.29-25.45-.92-2.22-2-4.84-4.77-5-2.22-.15-3.39,1.73-4,3.87-.69,2.45-1.32,4.81,1.49,6.34,12.85,7,15,20.39,19.53,32.37,3.83,5.8-3.13,14.13,4.48,19-1.13-15.33,3.53-28.17,16.11-37.65,1.94-1.46,3.4-3.38,3.12-6.09Z" style="fill: #EAEBED"/>
    <path d="M342.73,223.84c1.55,1.13,2.94,2.78,4.67,3.32,36.37,11.38,68.74,32.15,104.64,44.62,6.5,2.26,13,4.15,20.79,3-27.93-17.4-47.18-48.12-83.58-52.35-2.59-.81-3.06.68-3,2.75a4.48,4.48,0,0,0,1.64,1.75c12.58,5.38,26,8.84,36.92,17.89a260.89,260.89,0,0,0,32.39,23.39c-32.2-19.89-67-33.86-103-45.16-3.78-1.19-7.81-2.83-11.4.69Z" style="fill: #EAEBED"/>
    <path d="M312.59,165.68l-2.81,2.22c12.49,1.13,25.05,1.89,35.28,10.69,1.77,1.52,4.56,2.39,6.74.82.94-.68,1.45-3,1.09-4.26-1.05-3.57-3.47-1.81-5.78-1.21a3.23,3.23,0,0,1-4.24-3.12c.06-2.32,2.49-2.78,4.56-2.91,1.21-.08,2.64-.47,3.62,0,18.31,8.77,38.24-1.12,56.81,5,2.62.86,5.62.74,8.44.73s6.47-.54,6.26-4.12c-.27-4.56-3.79-2.65-6.46-2.1-6.36,1.32-12.75,2.53-19.52-1.35,1.16-4.1,8-4.37,6.89-10.32-3.76-2.18-6,.92-8.72,2.93-7.23,5.33-20.62,4.62-26.67-1.21l-.26-.27C350.44,166.68,331.65,167.05,312.59,165.68Z" style="fill: #EAEBED"/>
    <path d="M159,174.86l3.31,2.38c4.92-3.63,4-9.47,5.15-14.39,8.87-39,24.23-74.62,52.35-103.26.56,3-1.66,7.2,1.16,10.78a2.37,2.37,0,0,0,3.1.29c2.19-11.79,4.38-23.58,6.87-37C194.16,75.61,165,119.37,159,174.86Z" style="fill: #EAEBED"/>
    <path d="M108,186l2.58,5.22c5.23-1.51,4.91-6.08,4.91-9.93,0-22.67,6.86-43.62,15.62-64.12a106.85,106.85,0,0,1,3.31,39.59c-.35,3.19-.76,6.54,2.34,8.89.79.9,1.59,1.79,2.38,2.68,4.13-23.27,3.64-46-7.77-69.83C119,128.11,106.61,155.16,108,186Z" style="fill: #EAEBED"/>
    <path d="M412.9,116.75c3,4.45,3,4.54,1,5-3.83,1-9.64-1.92-10.19,5.32,23.29,9,46.66,17.85,71.85,19.8,4.62.35,9.81,1.39,14-2.26a2.37,2.37,0,0,0-.19-3.34c-24.77-1.22-48.52-7.71-69.63-15.09,1.73-.42,7,2.25,10.64-2.07,1.38-2.79-.64-4.32-2.21-6-2-2.2-5.15-2-7.55-3.41C417.8,114.33,415.09,114.56,412.9,116.75Z" style="fill: #EAEBED"/>
    <path d="M220.05,387.78c.63,4.64,6,4.81,8.47,9-23.58-2.32-46.29-5.05-67.49-14.86,6.45,8.09,15.94,10.59,25.21,12.89,20.42,5.06,42.32,3.36,61.65,14.11C241,398.26,232.28,390.6,220.05,387.78Z" style="fill: #EAEBED"/>
    <path d="M489.64,142.32c0,.78-.05,1.55,0,2.32l28.93-.73c-20.73-12.62-43.38-20.11-66.24-27.09a3.36,3.36,0,0,0-.8,3,4.16,4.16,0,0,0,3.91,2.28,16.56,16.56,0,0,1-3.72-.25c-2.2-.15-4,.41-4.64,2.8,2.41,5,7.4,4,11.49,4.65,10.24,1.7,20.34,3.74,29.94,7.91C491.77,138.62,491.49,140.1,489.64,142.32Z" style="fill: #EAEBED"/>
    <path d="M394.37,49.23c-23.61,18.81-49.26,35-71.85,55.1-3.48,3.09-8.25,5.25-9.4,10.5,11.2-3.65,17.92-13.31,26.83-20,19-14.38,39-27.61,56.89-43.44C397.2,49.26,396.9,48,394.37,49.23Z" style="fill: #EAEBED"/>
    <path d="M313.28,114.69c-5,.08-4.56-2-2.8-5.71,3.52-7.38,9.92-13.14,11.83-21.37-4.23.51-5.85,4.35-7.57,7.12-12.07,19.42-23.63,39.17-39.43,56.16C288,138.77,303.4,129.63,313.28,114.69Z" style="fill: #EAEBED"/>
    <path d="M273,349.61l5-2.62c-2.23-6.07-7.79-5.81-12.14-4.9-18.85,4-37.68-.58-56.48.51-3.52.2-7.33-.94-10.06,2.44-2,2.32-4.87,1.49-7.31,2.21C218.87,353.12,246,351,273,349.61Z" style="fill: #EAEBED"/>
    <path d="M153.53,360.54c23.1,7,44.54,18,66.66,27.35-12.43-12.68-28.84-17.83-44.91-23.5-7.13-2.51-14.55-4.19-21.84-6.24C153.44,359,153.47,359.75,153.53,360.54Z" style="fill: #EAEBED"/>
    <path d="M394.37,49.23l2.47,2.12c9.31-6.13,18.81-11.93,32.44-17.16-13.56-5.08-23.27-2.55-32.79,2.88l12.37.28Z" style="fill: #EAEBED"/>
    <path d="M258.39,254.79l-4.86,5.08c11.15.05,22.24-2.85,33.46-.39,2.36.52,5.43,3.15,7.39-.51a5.44,5.44,0,0,0-.32-4.53c-2.06-3.48-5.38-2.83-8.48-1.7A51.78,51.78,0,0,1,258.39,254.79Z" style="fill: #EAEBED"/>
    <path d="M395.89,112.55l2.61,2.36c18.65-6.71,38-11.58,55.74-20.74a4.59,4.59,0,0,0-4.13-3.42c-16.52,4.86-32.77,10.57-49,16.27C398.55,107.92,395.52,108.74,395.89,112.55Z" style="fill: #EAEBED"/>
    <path d="M104.72,266.32c2.11-1.72,4.79-3.08,6.19-5.26,2-3.1,8.86-5.38,3.29-10.49a9.58,9.58,0,0,0-12.29-.43c-5.43,4-1.23,7.29,1.74,10.69,1.12,1.29.9,3.75,1.29,5.67Z" style="fill: #EAEBED"/>
    <path d="M386.88,224.65l2.37-2.24c-15.21-5.7-31.27-7.5-47.11-10.3l-2.27,2.19c.07,1.76.84,3.34,2.49,3.77,13.31,3.49,26.68,6.76,40.34,8.63A4.7,4.7,0,0,0,386.88,224.65Z" style="fill: #EAEBED"/>
    <path d="M349.5,60.24,396.67,37C378.66,40.07,363.15,48.27,349.5,60.24Z" style="fill: #EAEBED"/>
    <path d="M224.46,270.64l.39,5.53c10.69-2.92,18.55,5.8,29,7.14-.08-7.38-3.95-10.59-10.39-10.35A65.13,65.13,0,0,1,224.46,270.64Z" style="fill: #EAEBED"/>
    <path d="M96.42,339.4c-4.61-5.61.7-13.56-4.48-19a167.14,167.14,0,0,1-3.72,49.06l2.41,2.39C94.55,361.36,95.88,350.45,96.42,339.4Z" style="fill: #EAEBED"/>
    <path d="M115.65,295.66a43.16,43.16,0,0,0,4.43-5.36c1.72-2.88,5.12-6.35,0-8.92-4.92-2.47-7.84.13-10.27,4.76-3.3,6.26.5,6.41,4.81,6.81.22,0,.31,1.46.46,2.24Z" style="fill: #EAEBED"/>
    <path d="M253.19,134.07c5.91,1.44,11.8,6.66,17.8.39,1.46-1.54.17-2.93-1.22-3.84-6.46-4.27-12.14-1.82-17.61,2.16A14.2,14.2,0,0,1,253.19,134.07Z" style="fill: #EAEBED"/>
    <path d="M190.56,278.78c5,3.88,9.85,8,15.09,11.51,2,1.33,5.37,1,6.58-1.24,1.37-2.53-.85-4.64-3.2-5.57-6-2.35-11.87-5.13-18.57-4.57Z" style="fill: #EAEBED"/>
    <path d="M224,70.66l-2.61,0c-8,9.88-13.5,20.83-13.91,33.85a3.35,3.35,0,0,0,1.33,1.23C216.11,95,221.88,83.61,224,70.66Z" style="fill: #EAEBED"/>
    <path d="M452.35,118.37c0-.52-.05-1-.06-1.55-10.49-1.48-20.93-3.7-31.63-2.11l4.83,4.46C434.54,122.35,443.57,124.39,452.35,118.37Z" style="fill: #EAEBED"/>
    <path d="M368.08,157.42a100.64,100.64,0,0,1,10.4-2.71c3.13-.49,4.1-2.22,3.92-4.91-.1-1.54-.19-3.82-1.14-4.4-2.59-1.6-4.56.56-6.1,2.34-2.59,3-4.9,6.27-7.34,9.41Z" style="fill: #EAEBED"/>
    <path d="M451.8,92.46l2.44,1.71C462.82,92.32,470,87.81,476.39,82l-1.23-1.37C465.17,80.23,457.81,85,451.8,92.46Z" style="fill: #EAEBED"/>
    <path d="M322.19,87.76c8.35-5.13,13.49-13.48,20.26-20.2C332.42,71,326.19,78.26,322.19,87.76Z" style="fill: #EAEBED"/>
    <path d="M224.24,141.37a13.46,13.46,0,0,1,1.68,0c-.73-4.71,4.09-10.23-1-14.06-4.54-3.4-7,1.24-3.76,7.73Q222.68,138.21,224.24,141.37Z" style="fill: #EAEBED"/>
  </g>
</svg>
