<svg id="Layer_1" data-name="Layer 1" xmlns="http://www.w3.org/2000/svg" viewBox="0 0 1080 1080">
  <g>
    <path d="M219.58,720.25c19.28,44.36,32.18,88.78,8.76,136.19l30.79,27.29,2.81-.7c0-14.81.16-29.62-.16-44.42,0-2.17-2.06-4.51-3.61-6.4-5.44-6.62-6.23-13.67-1.58-20.75,4.37-6.66,10.83-9.56,18.88-7.42,7.88,2.1,12.44,7.18,12.95,15.42.53,8.57-3.58,15.29-12.29,17.59-4.72,1.25-6.17,3.59-6.26,7.65-.32,14.39-.75,28.79-.59,43.17,0,2.28,2.4,5.15,4.48,6.69C324.14,931.75,380,957.33,442,971.89c-.62-1.31-.74-2.21-1.23-2.5-32.91-19.37-58.87-46-81.34-76.21a21.32,21.32,0,0,0-6.82-6.33c-25.77-13.34-41.44-34.75-50.61-61.36-6.57-19.07-8.3-38.79-7.44-58.83.31-7.21,3.19-8.58,9.35-5.1,29.33,16.56,45.66,42.22,52.05,74.22,2.76,13.78,3.27,28,4.85,42,.25,2.24,0,5,1.27,6.59,11.2,13.87,22.68,27.52,34.94,42.28-.82-15.87-1.33-29.55-2.42-43.18-.17-2.14-2.58-4.67-4.62-6-7.45-4.88-10.83-11.88-8.94-19.84a17.37,17.37,0,0,1,16.51-13c8.25-.17,13.89,3.78,17,11.16s.36,14.75-6.42,20.67c-2.64,2.3-5.2,6.27-5.28,9.54-.21,8.89.67,17.84,1.57,26.71,1.79,17.67,9.93,30.93,25.82,40.51,16.91,10.19,33.77,20,54.51,26.74-24.67-23.18-43.47-48-53.92-78.31-1.79-5.19-1.86-11-3-18.24,5,1.39,8.27,1.67,10.87,3.1a216,216,0,0,1,62.84,51.65c10.36,12.49,15.24,27.06,14.14,42.9h79.9l.12-2.39c-14.51-7.17-29-14.46-43.61-21.36-1.53-.72-4.3.59-6.28,1.44-8.26,3.52-16.57,2.43-21.68-3.39-5.55-6.32-6.62-13.5-2.35-20.79s11.2-10.24,19.41-8.31c8.61,2,13,8,13.74,16.84.23,2.63,2,6.26,4.09,7.4,17.18,9.12,34.61,17.8,52,26.45a8.31,8.31,0,0,0,5.12.23q28.49-6.61,56.92-13.48c.95-.23,1.76-1,3.78-2.27-52.59-9.7-103.14-20.89-140.09-61.73-1.72-1.9-2.72-4.45-4-6.7l1.34-3c14.55,1.72,29.27,2.56,43.62,5.32,45,8.67,86.25,26,122.37,54.43,2.17,1.71,7,1.77,9.9.68,30.3-11.59,58.58-27,85.45-45,2.87-1.92,5.77-3.8,9.19-6.06l5.12,6.35c-25.78,18.53-52.48,34.46-81.42,46.05-14,5.6-23.27,14.25-31.42,26.4-28,41.74-63.41,75.86-108.84,99.06-1.55.8-3,2-4.66,2.33a49.25,49.25,0,0,1-7.21.51c.11-2.42-.44-5.11.43-7.22,9.66-23.2,24.33-43.35,41.12-61.8,10.95-12,23.7-22.46,34-32.13-13.21,2.34-29,4.93-44.61,8.1-2.64.54-5.2,3.27-7,5.58-29.29,37-65.65,63.6-112.8,73.84-8.46,1.84-17.33,2.19-26,2.4a12.4,12.4,0,0,1-8.81-4c-.9-1.07,1.46-5.67,3.28-7.94,21.95-27.33,48.29-49.11,81.43-62.16a49.91,49.91,0,0,0,4.4-2.53c-17.08-1.08-32.53-2.22-48-2.85-2.12-.09-4.56,2.16-6.48,3.76-39.91,33.11-85.88,40.19-135.62,30.77-3.81-.72-7.31-3-13-5.48,25.13-24,54.16-35.41,86.05-40.51C383.91,957.58,342,955.71,299.16,967c0,4.37.35,7.81-.07,11.15-1.47,11.79-12,19.14-24,16.92a19.65,19.65,0,0,1-15.26-24.94c3.17-11.25,15.49-18.08,26.15-13,6.31,3,11.3,1.72,17.34.81,16.83-2.55,33.79-4.18,50.9-6.2-10.49-5.34-21.29-10.62-31.88-16.3-8.19-4.4-15.78-12.21-24.23-13.13-8.15-.89-16.95,5.53-25.68,8-35.58,10.12-69.91,4.39-103.35-9.06-8.55-3.44-16.52-8.34-24.54-12.94-2-1.14-3.13-3.75-4.66-5.68,2.33-1.38,4.5-3.5,7-4,41.94-9,73.15-9.25,115.62-2.12-1.42-1-2.91-1.92-4.25-3-6.27-5.17-13.36-9.66-18.57-15.73-13.68-16-30.81-22.9-51.7-23.74-19.2-.76-38.31-3.44-57.49-4.76-2.65-.19-6.4,1.91-8.11,4.11-6.33,8.15-13.83,11.24-22.73,8.34a18.65,18.65,0,0,1,.92-35.74c8.85-2.43,16.85,1.25,22.19,9.67,1.33,2.1,3.78,4.71,5.94,4.93,26.28,2.64,52.61,4.88,78.63,7.2-9.51-11.63-19.7-23.75-29.49-36.18-5.91-7.49-9.63-18.45-17.23-22.32-7.07-3.61-18,.49-27.18.52-34.71.08-66.24-9.28-92.67-32.24-4.55-3.95-7.39-9.81-11-14.78,6-1.09,12-3.25,18-3.09,34.8,1,68.2,7.46,98.82,27.55-9.45-20.26-18.05-39.31-27.41-58-1.23-2.46-6.17-3.5-9.61-4.44-36.18-9.91-68.1-26.92-93.27-54.91A65,65,0,0,1,0,616.83c40,8.06,74.1,22.78,104,50-3.21-14.26-6.51-27.06-8.86-40-1.5-8.26-5-14.34-11.23-20.41-24.13-23.5-40-51.51-42.95-85.55-.25-2.88,1-5.88,1.5-8.83,3.14,1.07,7.06,1.3,9.31,3.34,11.72,10.63,23,21.72,34.73,32.89-1.66-13.39,2.38-27.14-2.77-41.82-13.43-38.31-6-73.77,19.89-105.29,1.59-1.93,4-3.21,6.5-5.18,9,10.11,12.46,21.73,13.4,34.18,2.11,28-7,52.68-23.25,75.26a24,24,0,0,0-4.49,12.48c-.55,15.26-.35,30.55-.18,45.82a17.83,17.83,0,0,0,3.85,10.66q1.51-4.68,3-9.36c6-18.34,14.43-35.31,29.38-48.26a52,52,0,0,1,13.78-8.91c8.28-3.39,12.45-.53,10.49,8-3.53,15.35-7.49,30.79-13.33,45.4-7.78,19.48-20.39,36.24-36.1,50.4-4.34,3.92-5.31,7.92-3.77,13,7.92,25.8,15.35,51.76,24.07,77.3,5.54,16.23,13,31.82,21,47.54,2-42,5.18-83.27,30.41-122.21,2.56,5.13,5,8.41,5.91,12.07,11.14,46,8.26,90.37-17,131.78-2.6,4.24-2.93,7.37.15,11.48,9.77,13.1,19.19,26.46,29.61,39.29C193.66,785.36,196.63,750.84,219.58,720.25Zm369.53,270c-44.43,2.1-104.43,34.56-120.61,64.81C507,1048,569.76,1014.44,589.11,990.2ZM692.77,955c-41.46-31.25-88-49.77-140-54.45C596.47,926.28,645.16,939.3,692.77,955ZM302.59,770.88c9.23,37.46,28.4,69.13,49.08,101.61C356.71,835.42,332.53,785.5,302.59,770.88ZM474.68,987.23c-43.61-7.2-83.67,0-118.91,27.13C397.4,1013.64,435.32,997.26,474.68,987.23ZM692.62,972c-33.3,18.68-90.74,73-98.14,92C635.62,1043.38,665,1010.24,692.62,972ZM506.49,982.84c3-17.4-2-30.5-11.79-40.52-14.26-14.59-30.28-27.52-45.69-41-2.65-2.32-6-3.84-9-5.72l-1.6,1.82ZM114.89,695.43,13.75,631.7C25,657.9,85.71,697.27,114.89,695.43Zm45.36,213.48c31,20,103.28,25,121.3,8.44Zm-8.32-129.76L43.79,748.63c-.21.76-.43,1.51-.64,2.26C74.93,776,111.13,785.68,151.93,779.15Zm69.3-39.7-3.17.08,3.06,107,3-.08C240.91,810.34,232.52,774.86,221.23,739.45Zm-4.87,106.49,1.36-1.05V736.31c-2.2.79-2.84,1.7-3.23,2.71-11.36,29.62-14.4,59.84-5.86,90.64C210.2,835.36,213.73,840.53,216.36,845.94ZM15.11,626.25l-1.37,2.19q47.91,30,95.8,60C87.62,653.08,51.57,639.36,15.11,626.25ZM278.64,915c0-1,.06-2,.08-3-37.19-14.45-75.43-14.74-114.18-8.38-.07,1-.14,1.9-.22,2.85ZM177.8,654.38q-8.09,53.26-16.16,106.53C182,727.59,186.52,691.93,177.8,654.38ZM107.89,409.91C87.46,428,78.43,474.37,90.35,501.23ZM476.07,991l-108,27.95C407,1022,443.64,1015.4,476.07,991ZM93.75,499.13c20.08-18.73,29.2-64.9,17.24-89C105.14,440.34,99.53,469.32,93.75,499.13Zm-3.64,102c-9.6-27.77-26.14-52-42.51-76.26C53,554.89,65.87,580.91,90.11,601.11Zm56.67-85.3c-29.52,18.13-38.61,47.6-44.46,79.88C117.45,568.51,132.12,542.16,146.78,515.81ZM303.73,791c-.05,30.55,19.63,68.65,42.4,81ZM104,599.69l2.56,1.88c21.17-21.77,35-47.32,41.18-76.86l-2.52-1.32Zm360.43,461.15c39.77-1.27,72.53-18.33,101.23-44.36C533.45,1034.67,500,1050,464.41,1060.84ZM159.52,753.5q8.72-54.87,17.44-109.75C160.47,678.67,156.46,715.53,159.52,753.5ZM558.06,909.88c31.76,24.24,69,34.67,107.82,41Zm114.78,69c-34.5,13.11-55.7,42.85-75.3,71.21Zm-381-3.41a12.75,12.75,0,0,0-12.8-12.55,12.62,12.62,0,0,0-12.42,12.84,12.61,12.61,0,0,0,25.22-.29Zm207.32,2.59q-28-34.95-56.08-69.91C456.51,935.62,471.52,961.83,499.18,978.05ZM138.78,772.76C117.58,757.43,75,745.61,56,749.1ZM52.08,524.23l36.34,60.62C88.84,555.72,69.88,540.23,52.08,524.23Zm64.35,317.53c.09-4.19-3.87-8.84-10-9.21a11.86,11.86,0,0,0-12.19,11.12,11.19,11.19,0,0,0,11.6,11.44C112.61,854.76,116.67,851.44,116.43,841.76ZM534,953.6c10-.25,12.9-5.07,13.15-10.77.25-6-3.93-9.8-10-9.73-6.46.08-11,4.43-10.12,10.47C527.64,947.66,532.17,951.17,534,953.6ZM397.53,870.76c7.28-.57,11-3.73,10.9-9.22-.13-5.22-6-10.6-11.19-9.72-5.82,1-9.57,4.68-9.12,10.66C388.51,867.73,391.23,871.62,397.53,870.76ZM282.66,822.22l-.15-4c-3.86-2.47-7.52-6.51-11.64-7-5.84-.76-9.42,3.57-9.55,9.68-.16,7.52,6.34,9.2,11.14,9C276,829.8,279.27,825,282.66,822.22Z" style="fill: #ebebeb"/>
    <path d="M839.6,193.4c12.39,14,24.21,28.65,37.55,41.75,3.83,3.75,12,3.42,18.32,4.42,22.15,3.5,44.31,7,66.54,9.87,2.83.38,7-1.8,9-4.09,6.33-7,14.57-9.72,22.67-6.36a17.9,17.9,0,0,1,11.16,18.75c-1,8.26-5.58,13.81-13.89,15.84-8.8,2.15-16.4-1.73-21.35-9.74-1.52-2.46-4.56-5.17-7.25-5.6-24.7-3.87-49.47-7.27-74.65-10.87,1.39,1.83,3,3.92,4.62,6.06,11.67,15.82,23.73,31.38,34.77,47.63,3.83,5.64,7.28,7.16,14,6.67,39-2.84,73.86,7.87,103.05,34,4.85,4.35,7.58,11,11.29,16.6-6.36.62-12.78,2.14-19.06,1.71-31.85-2.14-62-10-91-29.43,5.8,12.6,11.56,22.57,15,33.26C965,378.1,973.08,385.4,988,390.42c29.81,10,55.91,27.24,76.23,51.68,7.77,9.35,13.82,19.8,15.73,34-19.91-.8-36-9.6-51.71-18.16-15.84-8.66-30.36-19.68-44.52-29.05,2.75,14.06,5.67,29.86,9.09,45.55.53,2.44,3.14,4.64,5.19,6.53,26.33,24.21,43.51,53.09,46.8,89.09a22.25,22.25,0,0,1-1.36,10c-19.58-9.25-32.86-24.56-44.84-43.58,0,15.32-3.23,29.92.6,42.4,11.35,37,7,70.45-15.92,101.58-2.09,2.85-5.24,4.94-8.42,7.87-13.22-16.4-15.82-34.26-13.85-53,2.23-21.09,10.31-40,23.36-56.93,1.53-2,3.63-4.32,3.67-6.53.31-16.31.17-32.62.17-48.31-6.5,12.17-12.17,25.38-20.18,37s-17.73,22.93-36.53,22.73c1.18-8.57,1.51-16.29,3.39-23.62a162.6,162.6,0,0,1,45.3-77.6c2.31-2.23,3.66-7,3.15-10.26-4.49-28.47-11-56.43-22.57-83.1-6.68-15.41-12.53-31.17-20.12-46.5-3.52,42.44-8.4,83.84-34.47,119.55-21.64-17.73-9.64-98.73,21.28-145.26l-29.69-43.73-2,.56c0,10.42.55,20.88-.11,31.27a129.7,129.7,0,0,1-18.78,59.62c-1.6,2.63-5,4.21-7.5,6.28-1.61-2.58-3.89-5-4.73-7.77-9.2-30.54-16.94-61.37-9.22-93.43,2.54-10.51,7-20.56,10.39-30.12-8.37-9.3-17.21-19.11-27.37-30.41-1.57,16.52-3.05,30.4-4,44.31-.15,2.15,1.61,4.71,3.07,6.65,5.19,6.91,5.36,13.95.46,20.8-4.53,6.33-11.17,8.33-18.58,6.12-7.82-2.32-12.26-8-12.18-16,.08-8.34,4.63-13.68,12.77-16.67,2.8-1,4.74-4.53,6.82-7.1.62-.78.44-2.23.52-3.37,3.61-50.43,9.18-36.29-30.22-64.71-36-26-76.11-44.62-118.66-57.94-1.89-.6-3.83-1.05-7.55-2.05,1.87,2.24,2.46,3.32,3.37,4,26,18.78,46.72,42.36,64.89,68.42a56.82,56.82,0,0,0,13.92,13.57c25.58,17.91,39.65,42.76,44.25,72.71,2.16,14.12,1.77,28.67,1.8,43,0,9.2-2.72,10.55-10.36,5.67-28.72-18.36-42.81-45.53-47-78.23a202.58,202.58,0,0,1-1.71-31.9,29.46,29.46,0,0,0-6.9-20.58c-8.49-10.53-16.69-21.3-26.4-33.75,0,15.9-.14,29.46.19,43,0,1.6,2.46,3.45,4.17,4.64,7.71,5.4,10.63,12.2,8,20s-8.1,11.74-16.42,11.75S688.8,237,686.18,229.4c-2.75-8,.68-14.9,8.76-20.51a10.89,10.89,0,0,0,4.3-7.19,219.31,219.31,0,0,0,.07-24.19c-.86-18.5-7.07-34.1-24.36-43.94-12.6-7.17-24.75-15.09-37.24-22.45-2.59-1.54-5.77-2.12-10.09-3.65,22.84,28.54,44.89,55.6,47.53,94.8-5.39-2-9-2.77-12-4.59a206.36,206.36,0,0,1-57.45-52.51c-9.65-12.88-11.75-21.83-12.08-43.63h-76.2c13.32,7.59,26.5,15.25,39.91,22.52,1.43.77,4.25-.48,6.24-1.26,7.88-3.1,14.95-2.08,20.81,4.07a16.41,16.41,0,0,1,1.55,20.78c-4.6,6.47-10.93,9.37-19,7.18-8.34-2.26-12.21-7.85-13.14-16.3-.35-3.18-2.14-7.44-4.66-9-15.43-9.27-31.24-17.91-47-26.68A7.19,7.19,0,0,0,498,102c-20.92,3-41.83,6.22-62.35,11.17,20.11,5.14,40.48,9.43,60.26,15.61,28.39,8.85,54.39,22.31,74.62,44.7,2.36,2.61,3.66,6.16,5.45,9.28-3.76.75-7.61,2.46-11.26,2.11-54-5.27-103.58-22.48-146-56.39-9-7.19-15.7-8-25.26-3.64C363,138.66,332.5,152.08,301.15,166l-4-6c23.38-11.42,45.8-22.94,68.73-33.39,13.7-6.25,30.09-8.29,41.75-16.89C419,101.34,426,87,434.92,75.27c24.58-32.21,56.61-55.38,92.4-73.87C530,0,533.66.42,536.87,0c-.42,2.93-.08,6.25-1.38,8.73-17.89,34.15-39.83,65-73.07,86.55A35.91,35.91,0,0,0,459,98.2c15.17-1.79,29.64-3.25,44-5.38,3.16-.47,6.62-2.73,8.81-5.16C547.44,48,589.61,20.89,645.13,19.51c5.06-.13,10.2,2.65,15.31,4.09-2.5,4-4.4,8.61-7.59,12C630.1,59.87,603.66,78.77,571.45,89a39.52,39.52,0,0,0-4.34,2.2c16.76,2,32.1,4,47.48,5.63,1.83.19,4.11-1.66,5.83-3,40.78-31.87,86.66-37,135.65-25,3.57.87,6.58,4,9.85,6.1-2.59,2.85-4.75,6.33-7.85,8.46A148.75,148.75,0,0,1,685,109.55c-1.9.16-3.78.6-5.44.87,39.2,22.88,81.16,23.77,125,16.48,0-3.33-.13-6.12,0-8.9A18.91,18.91,0,0,1,819,100.51C828,98.27,837,102,841.44,109.73c3.91,6.87,2.8,16.62-2.57,22.6-5.8,6.47-15,7.95-23.22,4.85A34.53,34.53,0,0,0,802,135.32c-18.49,1-37,2.52-54.93,3.81,6.6,3.6,14.47,7.6,22,12.08,10,5.93,19.67,12.39,29.7,18.26,2.4,1.4,6.34,2.76,8.46,1.79,38.06-17.56,75.65-12.64,112.72,2.54,11.43,4.68,21.89,11.73,32.62,18,1.69,1,2.48,3.46,3.68,5.25-2.1,1.24-4.08,3.26-6.31,3.59-37.52,5.51-74.89,6.71-111.75-4.41a4.67,4.67,0,0,0-1.67.16ZM524,89.51c36,3.43,102.24-27.86,118.82-56.16C611.51,35.12,540,68.91,524,89.51Zm32.39,85.63C536.4,161.29,437.28,122,419.67,120.4,460.9,151,505.87,169.85,556.34,175.14ZM791.06,317c-7.26-36.65-24.13-68.19-42.94-101.29C743.71,256.35,763.53,302.65,791.06,317ZM631.49,99.15c42.45,7,83.2,4.82,119.58-21.37C709.72,76.72,671.24,91.41,631.49,99.15ZM518.34,16.44c-40.53,19.07-69.16,50.67-94.43,85.86A341.43,341.43,0,0,0,518.34,16.44ZM662.5,189.09l2.35-1.87-60.31-83.73c-4.64,13.19-1.2,24,5.23,33.71C623.63,158.18,642.69,174,662.5,189.09Zm405.36,273.42C1055.47,434.64,996,392.22,971,394.6ZM938.43,190.28c-38.74-18.09-77.64-30.42-121.28-14.77Zm.79,126.82,104.38,35.16C1014.42,324.31,979.54,312.65,939.22,317.1Zm-66.93-67.7c-18.22,33.85-12.68,68-3.49,102.09l3.49,0Zm1.79,104.74a1.42,1.42,0,0,0,.82-.6c14.08-30.31,17.42-61.79,9.76-94.24-.84-3.54-4.44-6.45-7.19-10.27C876.3,285.31,875.18,319.9,874.08,354.14Zm33,82.17,22.29-103.77C906.38,363.87,901.18,399,907.09,436.31ZM822.75,178.64c23.6,16,81.58,23.18,108.88,13.45Zm166.4,410c-20.93,22.16-27.25,63.27-13.86,89.31C980.13,646.8,984.64,617.73,989.15,588.65ZM977.89,403c19.6,34.9,53.28,50.26,87.89,64.32l1.38-1.92ZM631.45,95.17l106.42-22C708.51,65.59,656.25,75.36,631.45,95.17ZM996.73,489l-3.08,2,43,76.2,2.36-1.3C1033,535.81,1019.82,509.69,996.73,489Zm-4.13,99.94q-6.23,40.35-12.46,80.69C997.94,644.88,1001.6,617.92,992.6,588.89ZM790.9,297.57c1.33-30.31-18.11-72.26-36.5-79.45ZM941.84,574.12c28.51-17.26,37.66-45.14,43.71-76.55Zm1.71-7.62L984,493.3l-2.17-1.17C962.23,509.65,943.14,544.55,943.55,566.5ZM549.36,63,646,26.3C609.05,27.18,576.71,41.73,549.36,63Zm2.25,102.75c-30.91-23.37-65.5-34.12-102-40.26ZM929.3,348l-21.42,97.19C924.33,414.65,930,381.83,929.3,348Zm-414-319-74,68.22C475,84.9,495.89,55.94,515.32,29Zm321,90.61c.13-6.79-4.9-12-11.86-12.29a12.33,12.33,0,0,0-12.83,11.41c-.39,6.7,5.54,12.87,12.4,12.89A12.39,12.39,0,0,0,836.37,119.56Zm197.79,448.49c-12.87-22.42-24.86-43.3-37.62-65.54C997.45,526.39,1012.37,552.23,1034.16,568.05ZM660.91,176.78c-11.62-26.71-24.4-52.75-50.14-69.49Q635.85,142,660.91,176.78Zm367.17,173.27-76.76-26.14C973.9,340.89,999.79,348.61,1028.08,350.05ZM987.47,244.94c-7.58.11-11.72,4.74-11.44,11.91.25,6.67,4.38,9.85,10.63,9.82,6.9,0,10.68-4.26,10.74-10.88C997.46,248.94,993,245.75,987.47,244.94ZM582.76,140.07c0-1.37-.08-2.74-.13-4.1-3.84-2.55-8.08-7.53-11.41-7-3.74.61-8.66,5.8-9.45,9.72-1.15,5.7,4,10,9.77,8.92C575.62,146.84,579.05,142.71,582.76,140.07Zm130.91,86.49c0-1.37.06-2.75.08-4.13-3.17-2.19-6.07-5.38-9.59-6.35-6.08-1.68-11,.94-11.28,7.7-.24,5.79,3.32,10.58,9.32,9.79C706.27,233,709.87,229,713.67,226.56Zm97,43.6c6,4.7,9.2,9.06,13,9.74,5.83,1,9.88-3.25,10.2-9.25.37-6.9-5.73-8.94-10.47-8.91C820.09,261.75,816.73,266,810.7,270.16Z" style="fill: #ebebeb"/>
    <path d="M922.08,759.62c11.48-.12,20.67,8.67,20.73,19.81s-8.93,20.1-20.45,20.1-20.18-8.63-20.13-20.23A19.66,19.66,0,0,1,922.08,759.62Zm12.11,19.75A11.82,11.82,0,0,0,922.44,768a11.7,11.7,0,0,0-11.75,11.37,11.75,11.75,0,0,0,23.5,0Z" style="fill: #ebebeb"/>
    <path d="M855.36,879.26a20.22,20.22,0,1,1-40.44.16c.07-11.18,8.45-19.6,19.7-19.79C846.38,859.44,855.3,867.87,855.36,879.26Zm-20-11.29a11.63,11.63,0,1,0,0,23.26,11.78,11.78,0,0,0,11.52-11.63A11.6,11.6,0,0,0,835.37,868Z" style="fill: #ebebeb"/>
    <path d="M215.69,213c11.75,0,20.3,8.47,20.16,20.08s-8.78,20-20.5,19.82a20.07,20.07,0,0,1-20-19.71C195.17,222,204.21,213,215.69,213Zm.07,31.43a11.55,11.55,0,1,0-11.8-11.3A11.71,11.71,0,0,0,215.76,244.42Z" style="fill: #ebebeb"/>
    <path d="M863.6,832.26A20.06,20.06,0,0,1,884,812.07a20.5,20.5,0,0,1,20.1,20.72c-.21,10.67-9.34,19.6-20.19,19.73A20.08,20.08,0,0,1,863.6,832.26ZM884,844.13a12.36,12.36,0,0,0,11.64-11.83c0-6.38-6.08-12.16-12.51-11.83-6.08.31-11.38,6.1-11.23,12.26C872,838.69,878,844.3,884,844.13Z" style="fill: #ebebeb"/>
    <path d="M173.3,305.38c-11.71.1-20.42-8.39-20.45-19.95,0-11.37,8.83-20.16,20.38-20.21a20.57,20.57,0,0,1,20.22,19.68A20.12,20.12,0,0,1,173.3,305.38Zm11.52-20.11a11.76,11.76,0,0,0-11.65-11.56A11.5,11.5,0,0,0,161.4,285.1a11.79,11.79,0,0,0,12,12.09A12.09,12.09,0,0,0,184.82,285.27Z" style="fill: #ebebeb"/>
    <path d="M285.24,189.32c.05,11.46-8.64,20.19-20.21,20.29a20,20,0,1,1-.61-40C276.09,169.44,285.2,178.05,285.24,189.32Zm-8.39.8a11.8,11.8,0,0,0-11.17-12c-6.89-.36-12.59,4.78-12.62,11.37,0,6.11,5.35,11.5,11.62,11.66S276.6,196.25,276.85,190.12Z" style="fill: #ebebeb"/>
  </g>
</svg>
