<svg id="Layer_1" data-name="Layer 1" xmlns="http://www.w3.org/2000/svg" viewBox="0 0 678.58 1032.8">
  <path d="M537.45,663.37v2l2.57-2Z" transform="translate(-200.71 -23.6)"/>
  <path d="M867.82,563a438.6,438.6,0,0,0-24.7-45.77Q747.95,361.84,652.27,206.74,597.76,118,543.52,29.13c-1.06-1.73-2.21-3.4-3.6-5.53-9.72,15.83-19,30.88-28.18,45.93Q409.34,236.72,306.93,403.89c-26.17,42.68-52.75,85.11-78.74,127.9-11,18.14-20.58,37.09-24.94,58.16-.93,4.49-1.7,9-2.54,13.52v19.37a19.94,19.94,0,0,1,.83,3.07c1.52,13,5.76,25.11,11.48,36.77C224,685,239.58,704,257.17,721.3c16.53,16.27,33.83,31.76,50.32,48.06,23.16,22.9,42.28,48.32,48.41,81.49.42,2.27,3.41,4.71,5.79,5.79,2.65,1.2,6,1.25,9,1.25q82.62,0,165.24,0V1054.2a2.19,2.19,0,0,0,2.2,2.2h3.74a2.19,2.19,0,0,0,2.2-2.2V857.92H709.45c1.38,0,2.77.08,4.15,0,6.44-.61,9.9-3,10.85-8,4.16-22.15,14.48-41.29,28.39-58.71,15.31-19.18,33.59-35.42,51.52-52,20.92-19.35,40.76-39.58,55.88-64C882.55,639,885.51,601.51,867.82,563Zm-42.35-40.72c6.11,10.43,12.56,21.16,18.75,32.05,2.8,4.93,4.87,10.27,7.66,15.2a17.12,17.12,0,0,1,1,15.79c-1.92,4.78-3.47,9.7-5.5,15.43-2.63-4.34-4.34-8.17-6.94-11.23-5.34-6.29-11.21-12.13-16.72-18.28-1.06-1.18-2.21-3-2.1-4.4C822.77,552,824.15,537.24,825.47,522.27Zm-.22,62.07a67.79,67.79,0,0,1,15.4,23.76c.55,1.42.91,3.54.24,4.71A119.89,119.89,0,0,1,815,644.66L799.33,623.9q10.11-21.55,20.76-44.24C821.32,580.76,823.38,582.46,825.25,584.34ZM557.77,396.88c4.1-11,12.44-17.73,24.09-19.83,5.92-1.07,11.33.41,15.52,5,3.33,3.66,3.67,8.94,1,12.25-3,3.72-7,4.19-11.28,1-2.35-1.76-4.44-2.19-6.39.23s-1.2,4.5.83,6.51c4.32,4.29,11.88,5.33,18,2.38a16.13,16.13,0,0,0,9.2-16.58c-1.84-13.77-14.6-22.12-29.4-19.15-2.53.51-5,1.32-8.78,2.35,14.56-20.06,31.83-33.93,55.54-38.39,4.55-.86,10.19,2.84,11.52,7.26,1.63,5.45-1.86,9.37-7.37,8.18-2.84-.61-5,.14-5.87,2.94-1,3.13,1.1,4.48,3.61,5.35a13.46,13.46,0,0,0,14.16-2.87c4.27-3.82,5.41-8.82,4.23-14.29a50.57,50.57,0,0,0-2.3-6.45c16.91-.18,33.46,14.54,31.62,30.94-.77,6.88-3.88,12.34-10.16,15.45-7.61,3.78-16.15.11-19.59-8.1-2.29-5.46-6.6-7.45-11.77-5.44-4.67,1.81-6.92,6.26-4.37,11.33,3,5.87,7.14,11.12,11,17-5.88,7.85-5.88,7.85-5.91,19.29a136.77,136.77,0,0,0-51,18.36c-.28-5.43,0-10.63-.93-15.59-1.59-8.27-9.5-12.84-16.59-9.84a12.53,12.53,0,0,0-5.68,5c-.83,1.48-.6,4.71.51,5.86,1.9,2,4.53,1.27,6.3-1.12.54-.74,1.08-1.46,1.75-2.35,4,1.09,6,3.9,6,7.68-.15,9.12-.77,18-9.46,24.08-6,4.23-11.29,9.46-16.86,14.29,0,.4,0,.81,0,1.21s.44.67.67,1l-1.4-1.62.69-.6C548.3,438.19,550.22,417.09,557.77,396.88Zm-8.16,123.06,13.65,14.31q-3.33,4.75-6.7,9.56C549.15,538.3,547,531.09,549.61,519.94Zm19.93,20.5c4.85,4.3,9.49,8.24,13.87,12.46a4.08,4.08,0,0,1,.28,3.91c-2.2,3.22-4.83,6.14-7.8,9.79l-14-15.21Zm22.83,20c6.92,5,14.2,10.23,21.35,15.6a3.16,3.16,0,0,1,.28,3.07c-3.32,3.44-6.81,6.75-10.44,9.87-.57.49-2.49.2-3.21-.41-6.19-5.19-12.24-10.55-18.21-15.74Zm31,22.06c7.35,4.18,15.23,8.57,23,13.21a3.92,3.92,0,0,1,1,3.62c-2.61,6.28-7.8,9.67-14.1,11.5a3.49,3.49,0,0,1-2.55-.57c-6.91-4.51-13.77-9.09-20.38-13.49Zm33.91,19.12,36,14.51c-9.11,8.76-32.33,9.64-49.26.87C648.28,612,652.7,606.9,657.24,601.64Zm74,82.12c-1.65,6.29-3.12,11.87-4.72,17.92-18.64-6.17-33.93-15.53-46.94-28.81A154.21,154.21,0,0,0,731.21,683.76Zm-18.92-10.65c7.7-1.3,14.4-2,20.88-3.63a94.69,94.69,0,0,0,17.31-6c3.95-1.85,6-.94,7.55,2.54.88,1.91,1.58,3.89,2.54,6.29A122.07,122.07,0,0,1,712.29,673.11Zm-15.88,35c-4,5.18-9.28,5.42-13.24.12-4.35-5.82-8.42-11.87-12.61-17.82l.64-.47Zm-19.67-67.74c3.1-.67,5.76-1.18,8.38-1.82,12.41-3.06,22.92-9.13,31.16-19.11,1.42-1.72,4.13-2.39,6.24-3.54C718.28,637.16,694.79,649.21,676.74,640.41Zm-18.63,68.85A196.27,196.27,0,0,0,682,764.07H658.11Zm22.71,30.42c-1.36-.14-3.17-1.87-3.68-3.27-4.35-12-8.46-24.14-12.63-36.23l.87-.12,30.81,35.8A22.89,22.89,0,0,1,680.82,739.68Zm13.39-19.09c3.51-2.48,6.76-4.9,10.15-7.09a3.92,3.92,0,0,1,3.15-.32,137.38,137.38,0,0,0,43,10.94,7.15,7.15,0,0,1,1.5.54c-2.68,10.09-8.89,17.33-17.67,22.52a4,4,0,0,1-3.3.17A141.31,141.31,0,0,1,694.21,720.59ZM735.9,704.2a1.28,1.28,0,0,1-.66-.35c1.58-6.71,3.1-13.19,4.74-20.18a135.71,135.71,0,0,0,47.77-11c3.45,9.62,3.82,19.32,2.84,29.13-.08.82-1.44,1.94-2.4,2.17C770.79,708.14,753.35,708.58,735.9,704.2Zm33.49-34.09-6.13-12.7c5-3.93,10.31-7.85,15.35-12s9.88-8.72,15.36-13.58c5.14,3.94,9.5,10.18,12.23,17.6a3.45,3.45,0,0,1-1,3A109.37,109.37,0,0,1,769.39,670.11Zm37.5-141.46c.85,28.51-4.53,55.65-19.95,80.17a102.21,102.21,0,0,1-29,30.54,17.77,17.77,0,0,1-4.32,2.18c5.23-10.68,3.1-21.65,2.28-32.62a43.52,43.52,0,0,1,1.25-13.63,9.91,9.91,0,0,1,10.25-7.64c4.56.21,7.76,2.91,9.15,8.27.88,3.39,2.64,5.45,6.13,4.55s2.75-4,2.19-6.52c-1.78-8.14-8.09-13.81-15.89-14.45-8.85-.72-17.46,4-19.67,12.66-1.73,6.79-1.8,14.26-1.2,21.31,1,11.21.75,21.79-6.88,31a22.29,22.29,0,0,1-12.44,8.07c-13.07,3.07-26.07,3.69-39.29-.24l5.37-.71a44.29,44.29,0,0,0,37.85-36.39c.31-1.74,1.62-3.39,2.72-4.89a30.28,30.28,0,0,1,3.06-2.78c8.15-8.28,8.82-19.56,1.59-26.24-8-7.4-22-6.62-28.76,2.33-3.39,4.53-5.21,10.24-8.26,16.48l-18.27-4.75c4.95-3.16,9.22-5.82,13.41-8.59,2.17-1.43,3.31-3.44,1.57-5.84s-4-2.46-6.84-1c-5.94,3.06-12,5.84-18.2,8.39a6.88,6.88,0,0,1-5.29-.29c-13.58-7.73-27.52-15-40.39-23.76-12.65-8.64-16.3-21.68-13.16-36.65.38-1.8.57-4.22-.32-5.6-1.93-3-6.35-1.61-7.61,2.36-2.61,8.3-2.18,16.65-.62,25.7-6.66-5.62-13.19-11.42-20-16.81-6.33-5-9.26-11.68-10.87-19.18-1.84-8.51-.07-15.88,7.3-21.25,2.75-2,4.09-4.44,1.75-7.39s-4.94-1.18-7.14.63c-8.21,6.74-11.39,15.68-10.94,26.17l-1.11.43c-4.56-5.35-9.27-10.58-13.54-16.14-.92-1.21-.9-3.93-.21-5.45,7.09-15.59,18-28.15,31.62-38.33,3.69-2.75,7.88-2.27,11.7.05a6.43,6.43,0,0,1,3,8c-1,3.12-3.44,3.1-6.34,3a6,6,0,0,0-4.55,3.13c-1.1,2.73.74,4.55,3.51,5.35,9.43,2.7,18.65-6.37,15.9-16.46-1.23-4.54-4.84-8.43-7.59-13a103.37,103.37,0,0,1,37-12.46,191.07,191.07,0,0,1,27.08-1.07c6.55.09,12.35,5.95,12.82,11.81.31,3.78-1,6.82-4.8,7.91-3.65,1.05-5.45-1.11-7-4.27-.68-1.35-3.39-2.62-5-2.4-3,.42-3.54,3.08-2.8,5.77,1.39,5.07,4.9,8.12,9.85,9.35,5.47,1.36,10.41.17,14.21-4.23,5.06-5.85,5-12.52,2.21-20.71,5.67,2.48,10.76,3.89,14.91,6.7,7.83,5.29,15.7,10.77,22.48,17.3,8.29,8,4.32,23.2-6.49,27.39-2.79,1.09-5.47,2.11-4.2,5.77s4.13,3.45,7.22,2.4c6.18-2.11,10.41-6.33,13.28-12,.74-1.46,1.39-3,2.17-4.67,10.86,20,8.12,49-12,66.62-12.24,10.74-26.29,14.65-42.37,10.78a11,11,0,0,1-8.35-7.6c-2.93-8-2.47-15.75,2.17-23,3.15-4.89,7.58-8.09,13.68-8.06,4,0,7.66,3.14,7.67,6.58,0,4.12-2.59,5.21-6.33,5.65-1.34.16-3.68,3.46-3.34,4.06,1,1.82,3,4.08,4.88,4.26,9.15.93,16.23-9.69,12.74-18.64-3.13-8-12.1-12.11-21.44-9.75-11,2.77-19.25,13.36-20.15,25.91-.21,2.9,0,5.82,0,10-6.59-6.54-10.28-13.37-11.21-21.67-2.2-19.77,14.37-40,34.53-39.67,5.34.09,8.52-3.19,8.63-8.12a8.58,8.58,0,0,0-8.85-9.15,45.62,45.62,0,0,0-25,6.71c-1.68,1-3.32,2.08-5.23,3.28-.45-4.51-.56-8.75-1.33-12.85-1.34-7.16-5.18-12.82-11.72-16.23a10.74,10.74,0,0,0-15.22,5.76c-1.7,4.38,0,9.9,3.87,12.19,4.1,2.46,8.79,1,13-4,4.79,9.35,2.36,22.05-5.41,31.3-5.85-3.53-11.19-7.88-17.3-10.18a18,18,0,0,0-23.77,11.4,13,13,0,0,0,4.65,14.77c4.73,3.46,11.25,3.81,15.55.76,2.74-1.94,4.72-4.35,2.37-7.71-2.21-3.17-4.47-1.75-7,.07-1.15.82-4.08,1-4.79.18-1.33-1.49-2.55-4.09-2.17-5.88.79-3.8,3.92-5.66,7.82-5.95,10.87-.82,22.41,11.57,20.77,22.28-4.44,29.11,16.12,56,46.71,60.77,21.92,3.45,41.08-2.16,56.91-18.06.53-.53,1.1-1,2-1.85,3.22,7,7.59,12.79,14.11,16.61,9.74,5.7,19.85,6.63,29.78.92,9.41-5.41,14.88-13.66,14.77-24.87-.09-8.49-5.56-16.4-12.93-19.07a15,15,0,0,0-13.27,1.42c-2.68,1.57-3.62,3.87-2.13,6.61s3.68,2.45,6.26,1.08c5.52-2.92,9.44-1.44,11.58,4.41,2.37,6.47,2,12.72-2.76,18.14-5.18,5.84-11.65,8.46-19.41,6.92a22.62,22.62,0,0,1-18.33-18.94,7,7,0,0,1,.45-4.36c7.63-13.15,10.76-27.33,10.19-42.43a5.32,5.32,0,0,1,.45-1.27c15.71,9.33,31.3,11.12,47.32-2.65C804.88,505.54,806.55,517.08,806.89,528.65ZM701.1,319.77c3.95,6.39,8,12.88,11.95,19.37q32.67,53.17,65.43,106.31c2,3.19,1.33,4.78-1.29,6.74-5,3.75-10.69,4.17-14.37.82-3.47-3.15-3.39-7,.52-9.56,2.44-1.6,3.78-3.32,2.08-6s-4.13-2.8-6.84-1.41c-8.91,4.59-9.07,18.77-.18,24.8a17.45,17.45,0,0,0,18.37,1.3c2.87-1.39,5.47-3.32,8.61-5.26,4.73,7.71,9.63,15.47,14.19,23.42.58,1-.2,3.28-1,4.53-5.78,8.81-14.48,10.22-24,8.73-7.68-1.21-14-5.28-19.55-10.59a7,7,0,0,1-1.79-3.12c-3.63-13.85-10.79-25.68-20.43-36.11-.39-.42-.69-.93-1.28-1.74,1.31-.33,2.29-.61,3.28-.8,10.83-2.07,18.38-11.06,18.87-22.5a23.64,23.64,0,0,0-16.77-23.29c-5.3-1.54-14.41,1.48-17.23,6.14a5.44,5.44,0,0,0,.13,4.94c.79,1.08,3,1.28,4.69,1.46.73.08,1.57-.83,2.35-1.33,7.83-5.05,16.25-1.18,17.89,8.3,1.1,6.33-.91,11.61-6.16,15.33-5.85,4.14-12.5,4.89-18.79,1.8-7.53-3.69-14.58-8.35-21.75-12.53,1.44-2.65,3.47-5.41,4.54-8.5,3.8-11-5-22.18-16-20.7-2.77.37-4.82,1.44-4.62,4.57s2.05,4.4,5,4c3.33-.45,6.26.63,7,3.78a12.07,12.07,0,0,1-1,8.09c-2.35,4-5.94,5.47-11.26,4.66-11.17-1.72-22.51-2.45-33.81-3.14-3.31-.2-4.43-1.25-4.3-4.27a10.79,10.79,0,0,1,12-10.31c11.2,1.13,20.5-2.7,28.06-10.93,1.33-1.45,2.54-3,3-3.63,5.32,1,9.9,2.72,14.41,2.53,10.88-.44,17.69-13.14,12.26-21.92-1.71-2.76-4-3.9-7-2.37-2.58,1.33-2.49,3.36-1.16,5.83,2.17,4,1.32,7-2.13,9-3.11,1.8-8.78,1-10.61-1.61a3.88,3.88,0,0,1-.44-2.51c2.08-18.33,1.36-21.54-8.49-37.27,3.35-2,7-3.63,10-6.13S698.44,323,701.1,319.77Zm-24.84-40.66c2.71,4.42,5.37,8.86,7.44,12.28-3.88,3.43-7.56,6.24-10.57,9.64-.85,1,.27,3.65.49,5.56,2.18-.41,5.29-.06,6.34-1.37,2.18-2.7,4.13-4.54,7.66-3.25,3.9,1.41,5.83,4.34,5.92,8.45.17,8.24-8.62,16.78-16.87,16.35a4.66,4.66,0,0,1-2.51-.87c-10.81-8.33-23.33-11.29-36.65-11.79a6.22,6.22,0,0,1-1.3-.37,84.65,84.65,0,0,0,5.59-7.86c4.32-7.66,3.07-17.8-2.64-23.53-4.7-4.72-13.57-3.71-16.57,2.19a6,6,0,0,0,.7,5.33c.69.91,3.42,1.05,4.81.48,5.3-2.19,7.39-1.15,7.66,4.66.31,6.78-3.53,11.49-8.9,14.59-8.55,4.95-17.46,9.28-27.48,14.54.49-3.43.81-5.29,1-7.16,1.35-12.25-9.14-23.42-21.13-22.41a13.42,13.42,0,0,0-12,8.69c-2.16,5.26-1.45,10.44,2.35,14.62,1.11,1.23,3.87,1,5.87,1.38.38-2,1.71-4.57.95-6-1.62-3-3.27-5.51.05-8s7.06-2.74,10.19,0a14,14,0,0,1,4.07,6.43c2.19,7.62-1.32,16.77-7.69,21.59a120.57,120.57,0,0,0-29.53,32.6c-.78,1.24-1.6,2.46-2.41,3.7l-1-.32c-.41-5.81-.66-11.64-1.3-17.43a9.2,9.2,0,0,1,3.92-9.17c3.1-2.25,6.2-4.52,9.48-6.47,2.35-1.39,3.64-3,2.32-5.58s-3.51-3.46-6.2-2.09c-3,1.5-5.83,3.17-9.27,5.05-.52-11.64-.42-22.71,1.84-33.73,2.93-14.3,7.87-27.74,16.26-39.78,1.31-1.88,2.49-4.27,4.35-5.27,2.48-1.32,5.84-2.53,8.3-1.86,1.89.52,3.78,3.85,4.23,6.2.66,3.42-1.9,5.69-5.1,6.7-2.38.75-4.4,1.56-4.06,4.59s3,4.74,6.54,3.71a15.36,15.36,0,0,0,11.08-11.28A14.5,14.5,0,0,0,588.75,248c-1-1.08-2.3-2-3.49-3,6.79-4.23,18.21-2.82,23.43,2.79,5.66,6.09,4.14,15.05-3.22,19-4.93,2.63-6.7,7.57-4.44,12.38,2.13,4.53,6.25,5.71,11.74,3.26,7.26-3.24,11.92-9,14.87-16.21,18,11.88,27.8,11.83,40.39-.38C670.81,270.31,673.56,274.7,676.26,279.11ZM663,257.46c-4.16,7.22-10.14,10.27-17.92,8.35-11.37-2.8-17-10.68-18-22.72,7.8-3.67,12.58-10.18,15.39-19.06ZM561.56,91.91c4.43,7.25,8.55,14,12.67,20.72-5,.33-9.55.52-14.08,1-2.82.29-4.58,1.87-3.89,5,.66,3,2.67,3.64,5.55,3.45a48.7,48.7,0,0,1,11.39.15,17.34,17.34,0,0,1,12.35,8.68c9.76,16.35,19.84,32.52,29.79,48.76.87,1.42,1.68,2.88,2.74,4.71-2.16.53-4,.88-5.85,1.46-5.85,1.91-9.76,5.81-11.08,11.87-1.22,5.65.18,10.7,4.58,14.65,2.28,2,5,3.81,7.66,1s1.11-5-1.47-7.28c-4.45-3.91-3-10.09,2.65-11.94a10.19,10.19,0,0,1,12.28,4.43c1.63,2.6,2.94,5.47,4.91,7.79,6.67,7.87,1.52,23.17-7.82,28.19a4.28,4.28,0,0,1-3.89-.16,36.22,36.22,0,0,0-24.39-9.16c1-2.5,1.93-4.69,2.69-6.95,3.71-11.05-1.94-23.61-12.5-27.91-11.64-4.74-24.1,4.44-22.78,16.8.11,1.06.12,2.52.77,3,1.61,1.29,3.58,3,5.39,3,2.84,0,3.52-2.46,2.86-5.11-1.08-4.3.21-7.65,4.3-9.54,4.27-2,7.84-.33,10.69,2.92,6.9,7.88,3.06,23.07-6.73,26.67-10.26,3.78-18.41,10.33-25.19,18.75-1.81,2.25-3.55,4.55-5.83,7.5-.19-1.81-.41-2.91-.41-4,0-17,.32-34.12-.22-51.16-.24-7.71,3.29-12.17,9.42-15.27a29.83,29.83,0,0,1,8.74-2.6c3.13-.51,4.93-1.95,4.69-5.07-.27-3.62-3.11-4.09-5.79-3.39-5.55,1.44-11,3.31-16.79,5.1,0-8.81,0-18.11,0-27.42a4.92,4.92,0,0,1,.81-2.11c4.85-8.78,17.65-12.89,26.51-8.53,6.13,3,9.19,9.3,7.38,15.21a8.73,8.73,0,0,1-8.44,6.62c-4,.23-7.27-1.45-8.74-5.41-1.12-3-2.32-5.73-6.17-4s-3,4.87-1.78,7.88c2.9,7,11.17,11.21,19.46,10a16.66,16.66,0,0,0,14.43-15.12c1.81-16.43-12-28.8-28.41-25.1-5.1,1.14-9.88,3.75-14.47,5.56C544.52,119,555.25,106.45,561.56,91.91Zm8.43,493c20.34,19.35,42.11,36.77,67.88,48.62,1.31.6,2.38,3.29,2.38,5,.14,36.27.11,72.54.11,108.81v16.46H612.59v-5c0-24.13,0-48.26-.05-72.38a7.94,7.94,0,0,1,2.89-6.71c6.72-6,10.65-13.49,10.19-22.74-.51-10.26-8.56-16.8-18-14.76-4,.87-7.33,3-8.32,7-.39,1.58.81,4.11,2.11,5.33.73.68,3.8.15,4.66-.85,1.81-2.08,3.2-4.41,6.34-2.94,3.38,1.59,5.38,4.57,4.66,8.2-.78,3.9-2.57,7.6-4.14,12l-48.79-36.18c2.78-.39,4.72-.52,6.6-1,6.46-1.48,11.22-5.16,13-11.66,1.54-5.51.53-10.77-3.78-14.86-1.51-1.43-3.53-2.87-5.47-3.11-1.63-.2-4.45.93-5,2.2s.45,4.34,1.73,5.21c2.66,1.81,5.66,3.09,4.37,7a9.51,9.51,0,0,1-8.32,7c-6.38.74-10.87-2.14-11.86-8.38a201.42,201.42,0,0,1-2.28-21.5c-.62-12.32-1.85-24.44-8-36.57C553.93,568.35,561.63,577,570,584.94ZM542.34,629.4q30.78,23,61.71,45.87a6.06,6.06,0,0,1,.9,1c-6.91,4.78-13.56,6.62-20.46.59-12.82-11.19-26.68-21.19-39.86-32-3.59-2.94-5.91-2.71-9.36.11-13,10.57-26.19,20.83-39.3,31.24-7.6,6-12.57,6.12-21.34,0,14.72-10.88,29-21.46,43.32-32,6.42-4.75,12.83-9.49,19.19-14.3C538.87,628.49,540.19,627.79,542.34,629.4Zm61.21,57.92v76.51h-6.87V689.24Zm-40.9,22.36a10.52,10.52,0,0,0-8.3-8.26c-4.44-1-8.35.05-11.14,3.92-.23.32-.45.64-.66,1V665.37c11.84,9.37,23.43,18.51,34.91,27.76a5.68,5.68,0,0,1,1.72,3.92c.1,21.51.06,43,0,64.53a16.76,16.76,0,0,1-.44,2.42H542.55V739.2c3.79-3.48,7.61-6.93,11.36-10.44a33.68,33.68,0,0,0,6.91-8.45C562.63,717,563.56,713.44,562.65,709.68Zm6.36,72c1.19,0,2.9,1.39,3.45,2.56,1.21,2.59,1.83,5.45,2.89,8.85H504.77c1.09-3.59,1.93-6.94,3.18-10.13.29-.74,1.95-1.34,3-1.34C530.29,781.55,549.65,781.52,569,781.69ZM537.45,665.4v40.85a13.46,13.46,0,0,0-2.92-3.25c-3.75-3-12.19-3.15-16.1,3.84-2,3.53-1.7,7.22-.41,10.89a24.18,24.18,0,0,0,6.23,9.18c3.13,3.07,6.42,6,9.64,9l3.56,3.29V764H501c-.08-1.65-.21-3.13-.22-4.62,0-20.13.08-40.25-.09-60.38a8.61,8.61,0,0,1,3.8-7.68c11-8.45,21.76-17.08,32.94-25.92v-2H540Zm-36,138.3a4,4,0,0,1,3.1-1.83q35.42-.15,70.83,0c1,0,2.68.66,2.94,1.41,1.63,4.55,3,9.22,4.5,14.29H497.12C498.63,812.64,499.88,808.1,501.5,803.7ZM483.29,689.22V764H476.4V687.31Zm42.94-83.94c-.3,4.28-1.31,8.49-1.74,12.76-.53,5.21-4.14,6.8-8.45,7.55-4.74.82-8.51-.87-10.92-5.06-1.92-3.35-1.51-6.29,2.32-8,3-1.3,4.69-3.2,3.09-6.42-1.86-3.74-4.81-2.43-7.48-1-5.34,2.78-8.12,8.71-7.27,15.21s6.1,12,12.86,13.5c2.06.46,4.2.62,7.21,1L467,671.17c-1.59-4.73-3.76-8.54-3.87-12.42-.07-2.58,2.26-5.9,4.48-7.71,2.57-2.09,4.42.52,6.28,2.6.94,1.05,4.16,1.58,5,.83,1.27-1.14,2.46-4.49,1.77-5.32-2.21-2.67-5-5.74-8.11-6.65-9.25-2.7-17.58,4.14-18.13,14.32-.5,9.42,3.65,16.85,10.27,23.24,1.28,1.23,2.63,3.2,2.64,4.84.16,25.66.11,51.32.1,77a15.22,15.22,0,0,1-.29,2H439.86c-.08-1.81-.2-3.31-.2-4.81,0-40,0-79.91-.11-119.86,0-3.66,1.14-5.22,4.44-6.75,25.09-11.68,46.39-28.75,66.21-47.74,8.27-7.93,15.94-16.49,24.78-25.69C526.9,574.27,527.33,589.9,526.23,605.28Zm-234,67.31A136,136,0,0,0,340,683.7c1.67,7,3.21,13.51,5,21.06-8.29.84-16.91,2.45-25.52,2.38-8.81-.08-17.61-1.85-26.42-2.81-2.78-.3-3.84-1.6-4-4.44C288.61,690.8,289.06,681.86,292.19,672.59Zm-16.14-19.15c-2.42-1.31-3-2.88-1.8-5.59a43.7,43.7,0,0,1,12.29-16.45l29.87,26.67-5.88,12.13c-3.37-1.19-7.25-2.13-10.7-3.88C291.8,662.24,284,657.75,276.05,653.44ZM356.8,617l1-1.28c2.22,1.48,4.91,2.56,6.58,4.52,9.1,10.59,20.72,16.47,34.19,19.15,1.19.24,2.4.43,3.59.71.25.06.43.4.63.61C384.48,648.89,361.48,637,356.8,617Zm51.89,73.05.86.51c-5.18,7-9.78,14.64-15.82,20.86-2.62,2.69-7.33-.28-10.7-3ZM353.6,701.66l-4.7-17.16c9.77-1.51,18.44-2.39,26.88-4.28s16.36-4.73,25.38-7.42A121.89,121.89,0,0,1,353.6,701.66Zm-33.93-29.24c.43-1.56.65-2.76,1.09-3.88,2.55-6.45,3.54-6.41,10-4.44,9.91,3,20.06,5.3,30.13,7.8a48.52,48.52,0,0,0,5.81.71A109.05,109.05,0,0,1,319.67,672.42Zm55.6,41.08,11.19,7.44c-7.89,6.15-15.68,12.45-23.73,18.39-3.68,2.72-8,4.57-11.8,7.12-2.77,1.84-4.89,1.31-7.43-.45-7.68-5.34-13-12.24-15.33-20.34Zm40.22-14.44c-3.69,11.5-6.83,22.21-10.6,32.7-3.25,9.06-5.35,9.84-14.73,7a57.36,57.36,0,0,1-6.44-2.75Zm6.6,10.35v54.48h-24A205,205,0,0,0,422.09,709.41Zm-35.33-93.2,36-14.59c4.35,5.07,8.67,10.11,13.15,15.35C420.81,625.54,396.94,625.23,386.76,616.21Zm51.3-23c6.41-3.59,12.72-7.35,18.6-10.76l13,14.36c-6.72,4.43-13.92,9.21-21.17,13.9a2.51,2.51,0,0,1-2.16,0c-3.34-1.81-7.08-3.24-9.8-5.75C430.34,599.2,430.83,597.28,438.06,593.21ZM520.23,415c-.63-2.39-1.54-5.08-3.24-6.74-5.71-5.59-15.87-3.15-18.95,4.85-1.55,4-1.45,8.67-1.87,13-.16,1.62.34,3.3.66,5.9-16.45-9.73-33.36-16.15-52.42-18.81,2.22-8.08-.43-14.76-5.33-19.14,4-6.11,8.16-11.4,11.1-17.3,2.52-5.06.19-9.45-4.56-11.21-5.05-1.88-9.56,0-11.51,5.22-2.17,5.81-6.18,9-12.26,9.63-6.55.64-11.32-2.51-14.6-7.82-4.1-6.63-4.24-13.79-1.1-20.77,5.7-12.64,16.47-17.81,30-19.69a62.47,62.47,0,0,0-2.39,6.39c-1.42,5.61-.41,10.77,3.91,14.8a13.39,13.39,0,0,0,14.1,3.11c2.5-.83,4.76-2.07,3.89-5.21s-3.12-3.62-6.18-3.19c-1.85.27-5,0-5.56-1.07a11.74,11.74,0,0,1-1.12-7.69c1.17-4.57,7-7.41,11.8-6.49,20.1,3.84,35.74,14.87,48.67,30.25,1.92,2.28,3.62,4.74,5.35,7-5.58-.65-10.85-1.84-16.1-1.74-11.2.22-20,8.73-21.3,19.85a16.11,16.11,0,0,0,8.3,15.77c5.94,3.28,13.45,2.77,18.2-1.23,2.34-2,3.84-4.24,1.63-7.12s-4.4-2-6.7,0c-3,2.58-6.14,2.57-9.27.31-3.47-2.49-4.17-6-3-9.83,1.76-5.95,8.91-10.1,16.37-9.25,11.3,1.29,20.06,7.38,24.36,17.47,9.13,21.42,10.68,44.22,10,65.37-5-4.28-10.38-9.74-16.57-14.06-8.49-5.93-9.54-14.48-9.85-23.5-.15-4.36,1.44-6.38,5.66-8.41a6.73,6.73,0,0,1,.81.39c2.06,1.27,4,2.83,6.23,3.62C517.93,417.94,520.41,415.65,520.23,415Zm3.27,128.79-6.78-9.45,14.17-15C531.33,528.86,533,537.78,523.5,543.78Zm-5.35,7.57L504.71,566c-1.62-1.28-3.12-2.26-4.38-3.48-6.11-6-6-7.7.23-13.25,3.19-2.83,6.34-5.71,9.83-8.86Zm-20.26,21.48c-6,5.21-11.91,10.51-18.05,15.58a4.69,4.69,0,0,1-4,.34c-5.2-2.17-8.72-6.06-10.8-11.71l22.54-16.64ZM448.25,206.34a37.29,37.29,0,0,0,4.58-7.44c2.4-4.87,6.6-6.12,11.17-4.86,2.43.66,5.35,3,6.11,5.19.65,1.9-.89,5.25-2.49,7.05-2,2.26-3.36,4.18-1.32,6.73,2.28,2.86,5,1.79,7.29-.09A14.41,14.41,0,0,0,479,198.57a15.22,15.22,0,0,0-10.39-12.45c-2-.73-4.12-1.08-6.66-1.72.87-1.52,1.63-3,2.48-4.35q14.79-24.17,29.58-48.32c4.83-7.9,12.59-11.51,21.86-10.12,1.22.18,2.73.88,3.59.41,1.66-.92,3.7-2.3,4.14-3.89.31-1.09-1.62-3.91-2.88-4.15-4.76-.88-9.65-1-14.93-1.47L518.42,92c6.37,14.46,17.11,27,11.89,43.9-3.2-1.52-6.63-3.55-10.31-4.84-17.91-6.28-34.42,6-32.49,24a16.67,16.67,0,0,0,15.28,15.29c8.55.85,16.66-4,19.06-11.39,1-3,.75-5.58-2.57-6.81s-4.58.84-5.63,3.64c-1.63,4.39-5.39,6.61-9.74,5.89a9.07,9.07,0,0,1-8-7.82c-1.57-8.16,6.17-16.53,15.59-15.67,4.79.44,9.71,2.62,13.94,5.1,4,2.37,6.08,6.42,5.77,11.72-.45,7.79-.11,15.63-.11,24.07a29.73,29.73,0,0,0-3.86-2.06c-4.32-1.49-8.63-3-13-4.17-2.68-.67-5.49-.26-5.77,3.4-.25,3.19,1.64,4.39,4.67,5.07a40.1,40.1,0,0,1,10.72,3.78c4.95,2.75,7.57,6.87,7.43,13.14-.38,17.05-.13,34.11-.15,51.16,0,1.45-.16,2.9-.28,4.83-3.63-4.31-6.74-8.23-10.08-11.95a54.11,54.11,0,0,0-22.07-14.55c-6.54-2.41-8.14-8.44-9.13-14.35A13.78,13.78,0,0,1,495,199.52a7.84,7.84,0,0,1,9.47-.56,7.22,7.22,0,0,1,3.49,8.68c-.72,2.73-.4,5,2.82,5.66s5-1,5.73-3.94a15.52,15.52,0,0,0-4.85-15.92c-5.13-4.69-11.19-5.63-17.58-3.05-10.5,4.23-16.09,16.54-12.61,27.46.74,2.31,1.78,4.52,2.87,7.26-9.53.26-17.81,3.21-24.76,9.59-.64.59-2.61.38-3.58-.15C446.86,229.57,441.51,214.4,448.25,206.34Zm-10.78,17.75c2.94,8.88,7.75,15.53,15.45,19-.95,11.93-6.55,19.81-17.87,22.7-7.8,2-13.79-1-18.06-8.3Zm-49.69,81.65c2.73-5.12,8.3-5.44,11.75-.83,1.87,2.5,4.11,3.34,6.75,1.68,2.92-1.83,1.92-4.58.24-6.34-2.87-3-6.29-5.45-10.3-8.83l7.32-11.94L412,265.74c5.35,6.24,11.85,9.46,19.79,9.24s14.4-3.68,20.46-9.07c3,7.46,7.57,13,14.6,16.33,5.53,2.58,9.72,1.61,11.94-2.71,2.53-4.92.8-10-4.33-12.78a12,12,0,0,1-.61-21c6.59-4.09,13.55-4,21.36-1.27-1.22,1.07-1.94,1.72-2.68,2.35-4.59,3.91-6.53,8.79-5.36,14.78a15.55,15.55,0,0,0,10.58,12.31c2.81,1,5.71,1.11,7-2.24s-.63-5-3.81-5.89-5.68-3.39-5-6.75a10.22,10.22,0,0,1,4.36-6.28,6.32,6.32,0,0,1,8.56,2.35c5.19,8.47,10.83,16.82,14.68,25.91,7.06,16.62,8.67,34.31,7.37,52.67-3.12-1.77-5.86-3.39-8.66-4.92s-5.19-1.09-6.69,1.7c-1.68,3.12.17,4.87,2.91,6,.14.06.27.14.41.21,8.86,4.4,14.59,10.44,12,21.4-.86,3.66-.78,7.54-1.23,12.26-1.19-1.64-1.92-2.51-2.5-3.47a120,120,0,0,0-31.45-34.53c-6-4.39-8.87-16.4-5.67-23.08,2.23-4.67,6.43-6.73,10.94-5.37s5.69,4.58,3.09,8.38c-1.91,2.78-2.1,5.2.78,7.11s4.88-.1,6.46-2.35a14.54,14.54,0,0,0,.05-16.47c-3.4-5-9.93-7.24-16.37-5.58a20.83,20.83,0,0,0-15.29,22.32c.21,1.66.49,3.32.73,5l-.87,1.31c-8.89-4.68-18-9-26.61-14.14-7.3-4.36-10-11-8.18-17,1-3.42,2.6-5.28,6.2-2.63,2.22,1.63,4.64,2.31,6.39-.41s.71-5.14-2-7c-7.43-5.31-13.61-3.95-17.57,4.32-3.8,7.93-2.71,15.53,2.52,22.54,1.08,1.44,2.32,2.76,3.87,4.58-3.58.35-6.7.59-9.81,1-9.76,1.16-19,4-26.84,10.06-2.71,2.07-5.17,2.11-8.13,1.22-7.13-2.14-12.25-7.55-12.74-14.16A11.91,11.91,0,0,1,387.78,305.74ZM282.57,476.5c4-6.51,8-13,11.75-19.11,4.76,2.22,8.94,5,13.52,6.16a16.09,16.09,0,0,0,20.1-18.28,12.24,12.24,0,0,0-6.74-9.33c-2.71-1.43-5.19-1-6.75,1.7-1.42,2.47-.09,4,1.95,5.74,1.58,1.36,3.44,4.65,2.82,5.85a12.47,12.47,0,0,1-6.39,5.7c-4.45,1.5-9-1.06-13.14-6.24L379.36,319a26.24,26.24,0,0,0,16.56,15.09c-2.8,6.48-6.32,12.55-7.95,19.09-1.32,5.32-.59,11.21-.32,16.83.11,2.31,1.2,4.39-1.67,5.84-3.45,1.74-7.07,2.39-9.82-.41-1.5-1.52-1.51-4.5-2.14-6.83-.06-.23.2-.57.37-.82,1.69-2.46,2.39-4.92-.93-6.49s-5.54.05-7.11,3a14.17,14.17,0,0,0,2.06,15.91c4.56,5.41,10.47,6.71,17.08,5,2.33-.59,4.48-1.88,7-3,1,1.21,2.18,2.6,3.38,4,7.78,8.78,17.46,12.72,29.19,11.4,6.09-.68,12.22,5.4,11.17,11.47-.2,1.19-2.3,3-3.46,2.95a137.65,137.65,0,0,0-37,3.64c-4.32,1-10.27-4.38-10.63-9.3-.34-4.6,2.65-7.45,8.14-7.44,2.8,0,4.46-1.15,4.75-3.87.33-3.1-1.57-4.39-4.39-4.74-6.28-.78-11.24,1.51-14.54,6.81-3.89,6.25-3.3,12.58.53,18.69.8,1.28,1.83,2.43,2.63,3.47-7.47,4.38-14.69,9-22.27,13-9.52,5-22.76-1.22-24.72-11.22a14.41,14.41,0,0,1,4.6-14.2c4.2-3.86,7.2-4.14,12-1.11,2.77,1.76,5.78,5,8.58.6,2.68-4.15-1.23-5.74-3.86-7.84-6.34-5-12.73-4.62-19.18-.47-8.1,5.21-11.88,12.77-10.9,22.32,1.18,11.52,8.34,18.86,19.85,21,.57.1,1.12.25,2.55.58-11,11.49-18.61,23.93-22.34,38.57a3.73,3.73,0,0,1-.78,1.64c-8.7,9-22.67,15.42-35.94,9.89a19.76,19.76,0,0,1-6-4.14C279.25,483.42,279.2,482,282.57,476.5Zm-6.18,19.91c.14-.74.38-1.45.74-2.78,15.09,12.85,30.65,11.29,46.31,1.92.76,7.29.76,14.41,2.4,21.13,1.76,7.23,5.22,14,7.61,21.14a14.53,14.53,0,0,1,.75,7.76c-2.22,8.74-7.93,14.35-16.74,16.63-7.73,2-14.26-.29-19.74-5.81a17.5,17.5,0,0,1-2.86-20.46c2.47-4.5,5.86-5.7,10.35-3.24,2.76,1.51,5.26,2.45,6.93-1s-.32-5.44-3.27-7c-6.58-3.38-14.42-1.81-19.57,4.23a21.87,21.87,0,0,0-4.9,20.65,29.25,29.25,0,0,0,23.83,21.63c12.41,1.72,25.18-4.82,31.71-16.26.81-1.42,1.52-2.91,3-5.74,1.44,2,2.29,3.77,3.6,5,28.38,27,76.62,21,95.51-11.78,6.16-10.69,7.83-22.14,5.75-34.26-1.77-10.34,12.46-23.56,22.58-20.67,2.43.69,4.89,3.2,6.09,5.51.7,1.34-.61,4.44-2,5.84-.82.85-3.87.58-5.16-.3-2.48-1.71-4.58-2.78-6.71,0s-.9,5.17,1.44,7.2c4.08,3.55,10.77,3.63,15.9.21a12.91,12.91,0,0,0,5.22-15,18.49,18.49,0,0,0-20.16-12.54c-8.36,1.23-14.64,5.93-20,12.14-8.54-9.22-11.17-22.49-6.67-31.83,2.29,1.48,4.45,3.4,7,4.31,1.65.59,4,.14,5.75-.58,3.74-1.55,5.78-6.62,4.84-11a10.84,10.84,0,0,0-16-7c-8.66,4.86-11.77,12.94-12.29,22.35-.11,2.09,0,4.18,0,7-7.71-5.51-15.51-9.24-24.42-10.09a53.62,53.62,0,0,0-5.51-.35c-5.83,0-9.6,3.59-9.57,8.92s3.21,8.19,9.28,8.42c14.38.54,26.61,9.74,31.86,24,4.81,13,1.6,26.83-9.17,37,0-3.41.19-6.19,0-9-.87-11.21-5.69-20.11-16.07-25.08-7.3-3.5-14.72-3.29-21.22,2.05A13.5,13.5,0,0,0,378,524.35a13,13,0,0,0,10.72,10.19c1.18.23,2.83.61,3.56,0,1.6-1.27,3.44-3,3.82-4.76.19-.92-2.5-2.53-4-3.69-1.76-1.37-5.12-2.54-5.15-3.86a9.59,9.59,0,0,1,3.15-6.81c3.34-2.73,7.32-1.48,10.84.37,10.61,5.55,14.79,21.9,6.44,33.89-.84,1.22-2.74,1.89-4.28,2.41-16.77,5.59-36-.35-48.61-14.93-14.74-17.08-17.9-42.8-7.31-62,.75,1.6,1.35,2.93,2,4.24,3.08,6.4,7.72,11,14.71,13,2.76.79,5,.21,6-2.6s-.35-4.46-3.12-5.58c-12.58-5.11-15.73-19.29-6.51-29.14a80.44,80.44,0,0,1,35.33-21.8c0,5-.79,9.78.19,14.21,1.45,6.6,7.16,10.39,13.53,10.41,6.1,0,11.51-3.56,13.35-8.82.94-2.71,1.05-5.38-1.94-6.74-2.57-1.17-4.84-.44-5.84,2.56-1.08,3.21-3.17,5-6.61,4.12s-4.92-3.46-5-6.9c-.12-5.69,5-11.5,11.35-12.84,16.56-3.52,52.18,4.17,66.46,14.42-1.72,1.54-3.54,2.94-5.08,4.6a15.2,15.2,0,0,0-1.77,18,12.29,12.29,0,0,0,13.32,6.1c2.81-.55,5.11-1.7,4.66-5.1s-2.55-3.89-5.68-3.74c-1.74.07-4.84-1.27-5.07-2.42a10.1,10.1,0,0,1,1.32-7.14c2.51-3.58,9.28-4.1,13-1.29,13.61,10.22,24.55,22.73,31.61,38.34.69,1.53.75,4.26-.17,5.45a109.26,109.26,0,0,1-14.73,15.83c0-1.58.09-3.15,0-4.72a29.08,29.08,0,0,0-11.58-22.13c-2.12-1.65-4.41-2.66-6.44-.09s-1.35,4.74,1,6.83a25.62,25.62,0,0,1-.16,38.42c-7.41,6.64-15.05,13-22.59,19.51,0-8.07,0-15.6,0-23.13a11.38,11.38,0,0,0-.79-3.11c-.88-2.82-2.81-4-5.66-3.19s-3,2.94-2.68,5.52c.61,4.53,1.59,9.14,1.28,13.65-.88,12.7-8.16,21.77-18.52,28.14-11.36,7-23.2,13.21-34.94,19.58-1.6.86-4.08,1.35-5.66.74a160.81,160.81,0,0,1-17.91-7.93c-3-1.58-5.49-2.52-7.63.47s0,4.88,2.32,6.4c3.95,2.58,8,5,12.67,8l-19.07,5.09c-1.38-4.16-2.27-7.73-3.73-11.05-4.33-9.82-13.43-14.56-23.58-12.56-10.79,2.12-16.45,12-12.71,22.33.72,2,1.55,4.33,3.09,5.57,6.14,5,8.05,11.84,10.64,18.89,6,16.37,18.57,25.44,35.78,28.07a28,28,0,0,1,4.88,1c-12.16,3.53-24.38,3.17-36.58.49a27.88,27.88,0,0,1-22.33-26.74c-.22-6.57,1.12-13.18,1-19.76-.11-5.27-.53-10.85-2.33-15.72-3-8.2-11.56-12.43-20.15-11.3-7.46,1-13.54,6.92-15.08,14.83-.49,2.46-.95,5.27,2.31,6.08s5.08-.91,6-4.14c1.74-6.07,4.87-8.7,9.74-8.71s9,3.24,10.23,9a44.9,44.9,0,0,1,.78,12.78c-.88,10.68-2.72,21.35,2.36,31.67l-1.13.79c-4.72-3.73-9.74-7.15-14.13-11.25-21.61-20.18-32.68-45.67-36.68-74.54C271.71,536.08,272.81,516.2,276.39,496.41Zm-6.56,105.71c3.42,7.34,7.65,14.31,11.33,21.09L265,644.7a121.47,121.47,0,0,1-25.87-31.78,4.59,4.59,0,0,1-.35-3.44A71.15,71.15,0,0,1,260.59,579C263.73,586.94,266.38,594.71,269.83,602.12ZM226,574.8c9.21-17.79,18.58-35.5,27.91-53.23l1.66.59c.05,1.07.09,2.15.16,3.22.86,13.6,1.77,27.2,2.53,40.81.08,1.44-.21,3.54-1.16,4.29a86.35,86.35,0,0,0-23.38,28.68c-.11.23-.47.32-1.62,1-2.24-7.1-4.46-13.78-6.41-20.53A7.22,7.22,0,0,1,226,574.8Zm3.32,81.7c-10.22-20.36-14.38-40.69-9.36-62.32,4.77,9.2,9.35,18.36,14.26,27.33,2.12,3.89,6.76,7.34,6.9,11.1S237,640.1,234.94,644,231.41,651.79,229.32,656.5Zm23.85,31c-7.44-4.25-11.84-10.93-16.21-17.79a5.3,5.3,0,0,1-.65-3.43,63.61,63.61,0,0,1,11.42-26.52,139.08,139.08,0,0,0,34.32,27.79,3.94,3.94,0,0,1,1.41,3.26c-1.33,9.66-2.85,19.29-4.38,29.28C270.37,697.33,261.8,692.47,253.17,687.55ZM319.51,757c-13-12.33-25.92-24.73-39.17-37.42,8.69,1.44,16.9,3.83,25.12,3.89,9.41.07,15.75,2.13,17.92,12.34.7,3.34,3.77,6.23,6,9.18s4.47,5.44,6.85,8.3c-4.05,1.31-8.93,3-13.86,4.42A3.43,3.43,0,0,1,319.51,757Zm56.24-14.77,20.74,7.41c-2.56,4.09-5.44,8.86-8.52,13.49a3.76,3.76,0,0,1-2.79,1c-16.85.07-33.7.05-50.23.05Zm-20.63,51.14c-3.66.06-6-1-7.82-4.15-1.36-2.36-3.18-4.46-5.19-7.23h66.36l1.2,1.19c-3.4,3-6.67,6.18-10.26,9-1.17.91-3.13,1.08-4.74,1.09C381.49,793.3,368.3,793.13,355.12,793.36ZM362,813.75c-.93-1.93-1.9-3.84-2.88-5.74s-1.85-3.48-3.08-5.78h33.79c-5.32,5.19-9.82,9.77-14.53,14.11C371.57,819.77,364.12,818.18,362,813.75Zm110,25.63c-.25.69-2,1.16-3.08,1.16-30.86.06-61.73.05-93.69.05,1.78-1.59,3-2.32,3.73-3.39,6.53-9.45,15.56-11.29,26.62-10.91,23.15.79,46.35.24,70.43.24C474.66,831.13,473.53,835.32,472,839.38Zm11.19-36c-3.58,14.44-3.58,14.44-18.3,14.44l-62.11,0c-1,0-2.06-.12-4.23-.24,5.51-5.46,10.3-10.29,15.23-15a4.71,4.71,0,0,1,3-.8q32.67,0,65.33,0a4.71,4.71,0,0,1,1.12.36A6.16,6.16,0,0,1,483.23,803.39Zm3.6-11.89a3.54,3.54,0,0,1-2.73,1.67c-19.87.1-39.73.08-59.6.08-.2-.39-.4-.79-.61-1.18,3.19-3.07,6.34-6.18,9.6-9.17a4.57,4.57,0,0,1,2.8-1.25c17.6-.08,35.21-.06,53.61-.06C488.81,785.23,488,788.44,486.83,791.5Zm3.65,48.83a7.35,7.35,0,0,1,0-1.31c3.16-12.49,3.16-12.49,16-12.49,24.84,0,49.69.07,74.53-.08,3.45,0,5.38.72,6.08,4.34a98.05,98.05,0,0,0,2.83,9.54Zm101.57-51.81a60.32,60.32,0,0,0-1.87-6.7c2.06-.1,3.65-.25,5.24-.25,14.56,0,29.12.17,43.67-.11,4.54-.09,7.89,1.06,10.78,4.56,1.82,2.21,4.31,3.86,6.5,5.76l-.82,1.48H632.26c-11.19,0-22.38-.17-33.56.09C594.86,793.44,592.66,792.5,592.05,788.52Zm7.76,25.1c-.87-3.83-2.22-7.54-3.53-11.84h17.66c15.8,0,31.6-.12,47.4.15a12.79,12.79,0,0,1,7.11,3c4.47,3.61,8.54,7.73,12.77,11.64l-.85,1.28h-9.5c-21.79,0-43.57-.07-65.36.08C602.14,817.93,600.55,816.88,599.81,813.62Zm97.79,27c-28.09,0-56.18-.12-84.27.13-4.27,0-6-1.31-6.77-5.23-.53-2.82-1.54-5.55-2.52-9h5c25.64,0,51.27-.08,76.9.12a11.81,11.81,0,0,1,7.11,2.92c3.72,3.32,6.88,7.28,10.3,11ZM716.92,816c-1,2-9.18,3-11.35,1-5-4.56-9.69-9.49-15.22-15h33.54C721.4,807.07,719.24,811.6,716.92,816Zm13.39-23.87c-.7.83-2.46,1.05-3.73,1.06-14,.07-27.9.12-41.85-.05a9.17,9.17,0,0,1-5.22-2.09c-3.14-2.55-6-5.51-8.9-8.3l.69-.94H738C735.17,785.69,732.92,789.07,730.31,792.16Zm11.09-27.92c-15,0-30.07-.07-45.11.06a5.91,5.91,0,0,1-5.9-3.29c-2.26-4-4.73-7.82-6.89-11.37l21.61-7.73c5.72,3.52,12.19,7.91,19,11.61s14.06,6.72,21.81,10.36C744.12,764,742.76,764.24,741.4,764.24Zm55.74-42.09c-11.88,11.33-23.74,22.7-35.74,33.9a6,6,0,0,1-4.68,1.37c-4.58-1.16-9-2.86-14.56-4.69,9.5-7.19,15.45-15.69,18.39-26.28.25-.9,1.88-1.88,3-2,11.82-1.47,23.66-2.78,35.19-4.09A16.38,16.38,0,0,1,797.14,722.15Zm46.12-52.67c-4.14,6-7.45,12.8-14.29,16.51-9.38,5.08-18.74,10.19-27.89,15.17-1.7-11.12-3.22-20.76-4.58-30.42a3.53,3.53,0,0,1,1.16-3,138,138,0,0,0,34.51-27.91,61.66,61.66,0,0,1,11.64,27A3.84,3.84,0,0,1,843.26,669.48Zm7.58-14.18c-3.8-6.8-7.67-13.55-11.31-20.42a4.48,4.48,0,0,1,0-3.9A148.28,148.28,0,0,0,859.21,594C865.87,605.57,860.76,641.37,850.84,655.3Z" transform="translate(-200.71 -23.6)" style="fill: #EAEBED"/>
  <path d="M540,663.37l-2.57,2v-2Z" transform="translate(-200.71 -23.6)"/>
</svg>
