<svg id="Layer_1" data-name="Layer 1" xmlns="http://www.w3.org/2000/svg" viewBox="0 0 989.79 988.77">
  <path style="fill: #ebebeb" d="M1035.78,952.66v83.12h-980c-7.78-5-10.12-12.2-9.79-21.35.58-16.41.16-32.85.16-49.28,0-18.08,4-22.12,22-22.12h54.65V899.65c-5.31-1-10-1.67-14.71-2.73-12.55-2.86-16-7.33-15.39-20.2.34-6.74,1.23-13.45,1.88-20.18q6.34-66.28,12.67-132.59,5.42-57.16,10.55-114.37c.25-2.83-.23-7.18-2-8.48C108.7,596,108,589.17,108,581.49q.14-76.82.05-153.63V417.12H97.16c-15.31-.07-20-4.8-20-20.22,0-16.43.64-32.89-.22-49.27-.64-12.25,4.34-19.39,14.53-25.69q217.48-134.5,434.5-269.79c10.75-6.7,19.11-6.94,29.92-.17q130,81.44,260.51,162,88.13,54.72,176.29,109.37c6.93,4.29,12.27,9.16,12.21,18.14-.14,20,.12,39.94-.12,59.9-.12,9.76-6,15.28-15.81,15.66-4.72.18-9.46,0-15,0v9.48c0,51.86.19,103.72-.27,155.57,0,5.85-3.71,11.69-5.81,17.49-1.17,3.26-3.87,6.53-3.64,9.63,1.61,22.14,3.73,44.24,5.83,66.34,4.18,43.88,8.49,87.74,12.68,131.62,2.27,23.7,4.67,47.39,6.5,71.13.84,10.92-3.39,15.79-14.16,18.29-5.24,1.22-10.56,2.1-16,3.16V943c18.86,0,37.16.39,55.43-.17C1023.58,942.58,1030.73,944.87,1035.78,952.66ZM850.89,841.75c-4.66.68-7.5,1-10.3,1.52-24.61,4.69-50.51-6.15-63.1-27.61-3-5.09-4.74-12.39-3.76-18.12q19.68-115.49,40.62-230.74c1.2-6.62-.36-9.74-5.39-13.47q-60.13-44.6-86.42-114.81c-.94-2.53-2.21-4.93-2.39-5.33-15.23,5-29.16,11-43.72,14-11.15,2.28-23.1.51-34.68,1-3.63.16-7.21,1.76-10.78,2.81-11,3.21-21.93,6.33-32.79,9.81-2.91.94-6.5,2.39-8,4.74-24.71,39-73.88,39-98.44.11-1.57-2.5-5.67-3.8-8.86-4.84-10.55-3.47-21.21-6.58-31.85-9.78-3.56-1.07-7.2-2.93-10.76-2.83-27.28.82-54.16.15-77.49-17.94-1.47,3.53-2.52,5.82-3.39,8.17-16.66,44.89-43.73,82.32-81.87,111.17-9,6.84-12.53,13.36-8.87,23.78a17.07,17.07,0,0,1,.69,2.82c13.1,74,26.3,148.1,39,222.22.85,4.91-.52,11.07-2.94,15.52-12,22.09-38.51,34.15-63.1,29.58-3.29-.61-6.64-.94-11.31-1.58,3.08,12.79-3.35,20.06-11.44,26.66-1.56,1.27-3.2,3.59-3.22,5.44-.22,22.76-.14,45.51-.14,68.31H865.72c0-22.55.14-44.43-.18-66.29a12,12,0,0,0-3.93-8C853.78,861.51,848.09,854.25,850.89,841.75ZM580,261.82c24.68-22.62,42.52-30.14,71.23-30.21,13.85,0,27.7-.07,41.55,0,12.8.07,18.4,5.39,18.15,18.15-.38,19.48-1.28,39-2,59.15h27.42c14.33,0,17,1.86,22,14.68H932.81c-2.59-1.87-3.82-2.87-5.16-3.7Q737.44,201.79,547.28,83.57c-5-3.1-8.27-2.54-12.93.36Q345,201.64,155.61,319.08a73.28,73.28,0,0,0-6.22,5H323.73C328,311.49,331.36,309,344,308.94c10.21,0,20.42,0,28.88,0-.67-20.82-1.32-40.64-1.93-60.47-.27-9,4-16.3,12.77-16.37,23.75-.21,47.69-.35,71.21,2.44,18.8,2.23,34.12,14,47.05,27.58C524.66,244.16,550.61,239.77,580,261.82ZM77.47,1004.2H1004.1V974.4H77.47Zm865-586.46H749.27c20,74.64,92.69,135.1,155.24,145.55-19.08-20.34-35.31-41.85-45.1-67.42a184.34,184.34,0,0,1-8.85-30.41c-1.67-8.5,4.12-15.57,12-17.12,8.06-1.6,15.34,2.67,18.11,10.84,1,3,1.5,6.24,2.36,9.34,9.81,35.31,31.44,62.48,59.53,87.33ZM179.89,563.12c66.76-12.27,135.38-77.22,152.57-145.45h-193V553.61c.83.24,1.22.48,1.39.38A21.73,21.73,0,0,0,144,551.8c26.83-24.61,47.81-52.91,56.61-89,2.82-11.56,10.6-16.85,20-14.21,8.81,2.48,13.53,11.14,10,21.81-5,15.18-9.8,30.81-17.57,44.61C203.26,532.21,190.62,547.77,179.89,563.12Zm-55,305.11c28.28,2.22,52.07-5.39,72.82-22.49,1.69-1.39,2.15-5.16,2-7.77q-5.21-105.16-10.71-210.31c-.57-10.79-1.51-21.56-2.29-32.48l-36.46,6.64C141.9,690.11,133.48,778.42,124.93,868.23ZM957,868c-8.57-89.84-17-178.36-25.39-266.23l-36.8-6.54c-.95,19-1.8,37.32-2.78,55.62q-5,94-9.95,188.08c-.12,2.47,1,6,2.86,7.43C905.57,863,929,870.7,957,868Zm-472.2-555.5c-12.6-.28-21.21,5.25-25.3,15.06s-1.65,20,6.77,28c12.74,12,12.84,18.59.46,30-9.65,8.94-11.93,21-5.92,31.35,6.17,10.69,18.15,14.71,31,10.41,14.28-4.79,21.21-.95,24.44,13.56,3.1,14,12.77,22.71,24.93,22.59,11.92-.12,21.36-8.61,24.44-22,3.53-15.36,9.9-18.93,24.89-14,12.33,4.06,24.1.16,30.33-10.05S625,394.8,615.64,386c-12.9-12.16-12.84-18,.3-30.68,8.95-8.6,11-20.71,5.16-30.73s-17.67-14.5-29.22-11.14c-18.14,5.28-21.14,2.78-27.36-15.46-2.32-6.82-8.3-14.19-14.61-17.48-14.36-7.49-29.61,2.21-33.57,19.58-3.48,15.3-9.9,18.88-24.92,14A65.65,65.65,0,0,0,484.79,312.48Zm360,263.91c-.79,3.48-1.7,6.82-2.3,10.22-12.07,68.24-23.93,136.52-36.33,204.7-1.72,9.44,1.5,14.45,9.26,18.5,12.45,6.48,24.23,1.55,36.69-1,1.36-24.76,2.72-49.12,4-73.49q3.48-65.49,6.88-131C864.28,579.24,867.57,586.67,844.77,576.39ZM229.84,809c7.3,1.47,14.09,3.29,21,4.14,16.55,2,26.79-8.79,24-24.6-8.66-49.29-17.16-98.61-25.8-147.91-3.75-21.37-7.72-42.71-11.62-64.29-23.26,10.38-19.73,3.19-18.48,28.14q2.37,47.21,4.94,94.39C225.85,735.42,227.84,772,229.84,809ZM973.59,355.84H758.35c-1.69,10.32-3.27,20-4.88,29.85H973.59ZM108.38,385.67H328.57c-1.75-10.28-3.4-20-5.08-29.88H108.38Zm546.51,30.45c43.77,6.42,79.76-32.85,70.27-76.19-10.44,0-21-.27-31.54.16a21.32,21.32,0,0,0-9.71,3.38c-11.41,7-22.74,14.08-33.74,21.65-2.21,1.52-4.75,6.55-3.9,7.88C654.82,386.35,656.49,401,654.89,416.12ZM356.11,339.93c-4.7,48,32.23,86.92,71.07,75.54-2-14.66,0-28.64,8.13-41.48,3.66-5.77-1-7.3-5.14-9.74-10.42-6.17-20.38-13.11-30.71-19.44-3.41-2.09-7.31-4.43-11.11-4.66C377.83,339.52,367.24,339.93,356.11,339.93ZM655,326.47c19.91-14.52,29.53-41.1,23.61-63.82-25.32-.17-51.48-3.65-72.4,18.34C632.17,286.14,648.29,300.79,655,326.47ZM476.11,281.06c-22.07-22.11-48.19-18.81-74-18.17-1.92,25.57,3.19,47.31,24.58,63.92C433.6,301.17,449.38,286.11,476.11,281.06ZM154.69,942.42h30.2V890.5l-30.2,8.56ZM897.3,890.64v51.92h29.79V899.05Z" transform="translate(-45.99 -47.01)"/>
  <path style="fill: #ebebeb" d="M695.78,695.75c-1.13,49.24-23.59,85-60.81,112.52-26.42,19.54-56,32.6-87.67,40.9-3.33.87-7.25,1.44-10.45.56-48.65-13.43-93.28-34.09-124.55-75.67-23.87-31.74-33-67.78-21.56-106.57,14.69-50,68.08-76.14,120-59.77,10.32,3.26,20,11.73,30.06,11.76s19.77-8.34,30.09-11.63c57.65-18.34,112.57,14.35,123.6,73.33C695.48,686.52,695.47,692,695.78,695.75ZM664.64,697a61.88,61.88,0,0,0-50.38-61.88c-22-4.25-41.21,3-59.25,14.49-12.69,8.11-15.18,7.76-27.8.34-9.32-5.47-19.29-10.56-29.64-13.42-38.48-10.61-73.93,12.07-79.44,51.43-3.61,25.74,4.94,49,21,69.15C464.5,788.8,499.28,805.59,537,817.2a17.25,17.25,0,0,0,11.17-1c20.43-9.17,41.79-17,60.7-28.71C641.92,767,663.15,737.71,664.64,697Z" transform="translate(-45.99 -47.01)"/>
  <path style="fill: #ebebeb" d="M587.31,371.1c-.09,25.85-20.83,46.18-46.94,46-25.76-.17-46-21-45.75-47.2a46.35,46.35,0,0,1,92.69,1.18Zm-46.14-15.72c-7.95-.13-15.44,7.16-15.57,15.16s7.16,15.46,15.15,15.6,15.45-7.2,15.58-15.18S549.16,355.51,541.17,355.38Z" transform="translate(-45.99 -47.01)"/>
</svg>
