<svg id="Layer_1" data-name="Layer 1" xmlns="http://www.w3.org/2000/svg" viewBox="0 0 1846.49 837.09">
  <path d="M1005.21,949.24c-6,7.56-14.12,8.77-23.23,8.77q-441.34-.18-882.68-.14a60.91,60.91,0,0,1-11.7-.93c-7.21-1.41-11.08-6.42-11.06-13.46s4.27-12.28,11.29-13.31,14.45-.65,21.69-.75,14.46,0,22.36,0V650.14c-4.44,1.62-8.61,3.19-12.81,4.67-11.95,4.2-19.78,1.89-22.83-6.69-3.19-8.93,1.06-15.45,13.05-19.81q57.28-20.87,114.61-41.68c27.74-10.09,55.45-20.29,83.25-30.21,12-4.26,20.11-.43,21.74,9.64,1.5,9.36-4,13.79-11.83,16.62q-42.45,15.41-84.9,30.85c-21.51,7.82-43,15.76-64.53,23.45-4.39,1.57-7,3.28-7,8.73q.24,139.26.14,278.5a39.79,39.79,0,0,0,.59,4.75H357V510.59c-4.49,4-7.72,8.32-12,10.4-4.73,2.3-11.34,4.76-15.48,3.08s-8.34-8.32-8.52-13c-1-24.45-1-49-.42-73.43.11-4.67,3.69-10.32,7.35-13.67q96-87.88,192.51-175.17c4.46-4,6.32-8.07,6.17-14-.37-15-.12-30.12-.12-46.48-7.27,0-13.81.24-20.33-.06-11-.5-16.46-5.29-16.48-14,0-9.11,5.89-14.09,17.11-14.26,6-.09,12.08,0,19.74,0,0-7.95-.32-15.67.07-23.35.61-11.93,9.57-18.58,19.34-14.64,6.84,2.77,8.91,8.6,9.05,15.33.15,7.19,0,14.39,0,22.67,7.59,0,14.46-.18,21.31,0,9.86.31,15.43,5.48,15.52,14,.08,8.23-4.71,13.23-14.46,14-6.89.53-13.87.1-22.35.1,0,13.15.88,25.78-.25,38.22-1.09,12,3.14,20,12,27.94,62.53,56.15,124.53,112.88,186.83,169.28a21.75,21.75,0,0,1,7.72,17.45c-.15,22.38-.08,44.76,0,67.13,0,7-1.33,13.25-8.6,16.48s-12.79,0-17.91-4.81c-3-2.84-6.09-5.66-10.26-9.54V928.87H920.73v-8.62c0-90.11-.12-180.22.21-270.33,0-8-2.44-11.56-9.87-14.21q-73.19-26.07-146-53.09c-4.44-1.64-9.74-5.12-11.35-9.09s-.61-11.3,2.22-13.89c3.47-3.18,10.73-5.17,15.17-3.81,18.69,5.74,36.95,12.89,55.36,19.57q72.6,26.36,145.2,52.76a51.13,51.13,0,0,1,6.66,2.78c7.22,3.85,9.55,10,6.79,17.47-2.7,7.31-8.77,10-16.07,8.34-6.39-1.48-12.51-4.12-19.48-6.5V929.4c11.42,0,22.55.37,33.63-.12,9-.39,16.57,1.49,22,9.07ZM541.08,343.76a32.89,32.89,0,0,0-3.29,2.18q-73.12,66.45-146,133.13c-3.2,2.95-5.41,8.69-5.42,13.14q-.4,213.56-.21,427.11v9.34h65.67c0-43.33-.1-85.92.09-128.51,0-8.41.24-17,2-25.18,9.36-43.55,51.55-74.8,94.35-70.41,46.15,4.72,81.12,42.64,81.41,88.77.25,42,.07,84,.08,126v9.29h65.66V919.8q0-214,.21-428c0-6.65-2.82-10.51-7.22-14.49q-52.1-47.16-104-94.47C570,369.85,555.7,357,541.08,343.76ZM348.39,480c14.28-12.92,27-24.41,39.68-35.93q70.8-64.33,141.58-128.66c7.44-6.75,14.6-6.94,21.75-.45q60.76,55.13,121.41,110.4c19.57,17.79,39.18,35.54,60.29,54.67,0-10.95.61-19.95-.26-28.81-.44-4.53-2.4-10-5.61-13-42.64-39.35-85.61-78.34-128.53-117.39-19.17-17.44-38.4-34.81-57.24-51.88-1.14.29-1.5.27-1.69.45q-94,85.31-187.83,170.75a12.05,12.05,0,0,0-3.39,7.69C348.15,457.84,348.39,467.81,348.39,480ZM525.91,929.1V735a38.65,38.65,0,0,0-4.92.91c-25.54,8.61-41.38,32-41.46,61.71-.11,40.82,0,81.64,0,122.45v9Zm29.77-193.63V928.75H602c0-21.76.15-42.87,0-64-.24-26.89.16-53.82-1.43-80.63C599.08,760.81,577.73,738.78,555.68,735.47Z" transform="translate(841.27 -120.91)" style="fill: #000"/>
  <path d="M771.12,770.79c0-18.42-.43-36.86.1-55.26.77-26.87,23.32-48.12,50.92-48.73,25.07-.56,49.45,19.65,50.48,45,1.6,39.2,1.22,78.48,1.16,117.72,0,10.47-5.39,15.44-16.08,15.62q-35.33.58-70.67,0c-11.52-.2-16-5.47-16.09-17.21-.12-19,0-38.06,0-57.09Zm74.3,45.61c0-34.22.39-68-.23-101.73-.2-10.26-11.46-19-21.81-19.47-14.21-.6-24.69,10.18-24.81,26.22-.2,28.1,0,56.21,0,84.32V816.4Z" transform="translate(841.27 -120.91)" style="fill: #000"/>
  <path d="M310.58,771.73c0,18.42.06,36.85,0,55.27-.06,12.89-4.51,18-17,18.15q-34.42.47-68.86,0c-11.35-.16-16.94-4.93-17-15.7-.07-39.24-.43-78.52,1.18-117.71,1-25.33,25.42-45.53,50.49-44.93,27.65.66,50.13,21.86,50.89,48.76.53,18.71.1,37.44.1,56.17Zm-27.72,44.72c0-33.28.36-65.59-.17-97.88A23.34,23.34,0,0,0,258,695.2c-12.56.58-22,11.17-22.08,25-.09,24.18,0,48.35,0,72.53,0,7.77,0,15.54,0,23.69Z" transform="translate(841.27 -120.91)" style="fill: #000"/>
  <path d="M509.86,471.79c10.22,3.19,20.38,8.63,30.68,8.94s20.76-6.41,31.24-6.72c24.79-.73,42.88,11.73,52.85,34.09,9.68,21.72,6.88,43.13-9.3,60.72-20.44,22.23-42.16,43.3-63.64,64.54-7.36,7.28-14.25,7.33-21.52.18C508.83,612.57,487,592,467,569.82c-30.19-33.44-13.95-83.66,29.8-94.76,4-1,8.31-1.16,12.48-1.71ZM542,603.26c17-16.93,34.65-33.81,51.43-51.56,11.27-11.91,10.86-28.79.55-40.23s-26.13-13.33-39.34-4.54c-14,9.29-14,9.29-27.53.07-12.72-8.63-28.31-7.17-38.77,3.63s-12.46,27.4-2,38.56C503.86,567.8,523,584.93,542,603.26Z" transform="translate(841.27 -120.91)" style="fill: #000"/>
</svg>
